G04 #@! TF.GenerationSoftware,KiCad,Pcbnew,5.1.5+dfsg1-2build2*
G04 #@! TF.CreationDate,2021-10-18T22:37:47+02:00*
G04 #@! TF.ProjectId,blind_tc,626c696e-645f-4746-932e-6b696361645f,rev?*
G04 #@! TF.SameCoordinates,Original*
G04 #@! TF.FileFunction,Soldermask,Top*
G04 #@! TF.FilePolarity,Negative*
%FSLAX46Y46*%
G04 Gerber Fmt 4.6, Leading zero omitted, Abs format (unit mm)*
G04 Created by KiCad (PCBNEW 5.1.5+dfsg1-2build2) date 2021-10-18 22:37:47*
%MOMM*%
%LPD*%
G04 APERTURE LIST*
%ADD10C,0.100000*%
G04 APERTURE END LIST*
D10*
G36*
X55634239Y-91811467D02*
G01*
X55948282Y-91873934D01*
X56539926Y-92119001D01*
X57072392Y-92474784D01*
X57525216Y-92927608D01*
X57880999Y-93460074D01*
X58126066Y-94051718D01*
X58126066Y-94051719D01*
X58251000Y-94679803D01*
X58251000Y-95320197D01*
X58188533Y-95634239D01*
X58126066Y-95948282D01*
X57880999Y-96539926D01*
X57525216Y-97072392D01*
X57072392Y-97525216D01*
X56539926Y-97880999D01*
X55948282Y-98126066D01*
X55634239Y-98188533D01*
X55320197Y-98251000D01*
X54679803Y-98251000D01*
X54365761Y-98188533D01*
X54051718Y-98126066D01*
X53460074Y-97880999D01*
X52927608Y-97525216D01*
X52474784Y-97072392D01*
X52119001Y-96539926D01*
X51873934Y-95948282D01*
X51811467Y-95634239D01*
X51749000Y-95320197D01*
X51749000Y-94679803D01*
X51873934Y-94051719D01*
X51873934Y-94051718D01*
X52119001Y-93460074D01*
X52474784Y-92927608D01*
X52927608Y-92474784D01*
X53460074Y-92119001D01*
X54051718Y-91873934D01*
X54365761Y-91811467D01*
X54679803Y-91749000D01*
X55320197Y-91749000D01*
X55634239Y-91811467D01*
G37*
G36*
X151634239Y-91811467D02*
G01*
X151948282Y-91873934D01*
X152539926Y-92119001D01*
X153072392Y-92474784D01*
X153525216Y-92927608D01*
X153880999Y-93460074D01*
X154126066Y-94051718D01*
X154126066Y-94051719D01*
X154251000Y-94679803D01*
X154251000Y-95320197D01*
X154188533Y-95634239D01*
X154126066Y-95948282D01*
X153880999Y-96539926D01*
X153525216Y-97072392D01*
X153072392Y-97525216D01*
X152539926Y-97880999D01*
X151948282Y-98126066D01*
X151634239Y-98188533D01*
X151320197Y-98251000D01*
X150679803Y-98251000D01*
X150365761Y-98188533D01*
X150051718Y-98126066D01*
X149460074Y-97880999D01*
X148927608Y-97525216D01*
X148474784Y-97072392D01*
X148119001Y-96539926D01*
X147873934Y-95948282D01*
X147811467Y-95634239D01*
X147749000Y-95320197D01*
X147749000Y-94679803D01*
X147873934Y-94051719D01*
X147873934Y-94051718D01*
X148119001Y-93460074D01*
X148474784Y-92927608D01*
X148927608Y-92474784D01*
X149460074Y-92119001D01*
X150051718Y-91873934D01*
X150365761Y-91811467D01*
X150679803Y-91749000D01*
X151320197Y-91749000D01*
X151634239Y-91811467D01*
G37*
G36*
X55634239Y-51811467D02*
G01*
X55948282Y-51873934D01*
X56539926Y-52119001D01*
X57072392Y-52474784D01*
X57525216Y-52927608D01*
X57880999Y-53460074D01*
X58126066Y-54051718D01*
X58126066Y-54051719D01*
X58251000Y-54679803D01*
X58251000Y-55320197D01*
X58188533Y-55634239D01*
X58126066Y-55948282D01*
X57880999Y-56539926D01*
X57525216Y-57072392D01*
X57072392Y-57525216D01*
X56539926Y-57880999D01*
X55948282Y-58126066D01*
X55634239Y-58188533D01*
X55320197Y-58251000D01*
X54679803Y-58251000D01*
X54365761Y-58188533D01*
X54051718Y-58126066D01*
X53460074Y-57880999D01*
X52927608Y-57525216D01*
X52474784Y-57072392D01*
X52119001Y-56539926D01*
X51873934Y-55948282D01*
X51811467Y-55634239D01*
X51749000Y-55320197D01*
X51749000Y-54679803D01*
X51873934Y-54051719D01*
X51873934Y-54051718D01*
X52119001Y-53460074D01*
X52474784Y-52927608D01*
X52927608Y-52474784D01*
X53460074Y-52119001D01*
X54051718Y-51873934D01*
X54365761Y-51811467D01*
X54679803Y-51749000D01*
X55320197Y-51749000D01*
X55634239Y-51811467D01*
G37*
G36*
X151634239Y-51811467D02*
G01*
X151948282Y-51873934D01*
X152539926Y-52119001D01*
X153072392Y-52474784D01*
X153525216Y-52927608D01*
X153880999Y-53460074D01*
X154126066Y-54051718D01*
X154126066Y-54051719D01*
X154251000Y-54679803D01*
X154251000Y-55320197D01*
X154188533Y-55634239D01*
X154126066Y-55948282D01*
X153880999Y-56539926D01*
X153525216Y-57072392D01*
X153072392Y-57525216D01*
X152539926Y-57880999D01*
X151948282Y-58126066D01*
X151634239Y-58188533D01*
X151320197Y-58251000D01*
X150679803Y-58251000D01*
X150365761Y-58188533D01*
X150051718Y-58126066D01*
X149460074Y-57880999D01*
X148927608Y-57525216D01*
X148474784Y-57072392D01*
X148119001Y-56539926D01*
X147873934Y-55948282D01*
X147811467Y-55634239D01*
X147749000Y-55320197D01*
X147749000Y-54679803D01*
X147873934Y-54051719D01*
X147873934Y-54051718D01*
X148119001Y-53460074D01*
X148474784Y-52927608D01*
X148927608Y-52474784D01*
X149460074Y-52119001D01*
X150051718Y-51873934D01*
X150365761Y-51811467D01*
X150679803Y-51749000D01*
X151320197Y-51749000D01*
X151634239Y-51811467D01*
G37*
M02*
