M48
; DRILL file {KiCad 5.1.5+dfsg1-2build2} date Sat 11 Dec 2021 09:30:27 PM CET
; FORMAT={-:-/ absolute / inch / decimal}
; #@! TF.CreationDate,2021-12-11T21:30:27+01:00
; #@! TF.GenerationSoftware,Kicad,Pcbnew,5.1.5+dfsg1-2build2
; #@! TF.FileFunction,Plated,1,2,PTH
FMAT,2
INCH
T1C0.0197
T2C0.1260
%
G90
G05
T1
X2.0709Y-2.1654
X5.9449Y-2.2598
X5.8504Y-3.7402
X5.8781Y-3.6733
X5.8781Y-3.807
X5.9449Y-3.6457
X5.9449Y-3.8346
X6.0117Y-3.6733
X6.0117Y-3.807
X6.0394Y-3.7402
X2.0709Y-3.7402
X2.0985Y-3.6733
X2.0985Y-3.807
X2.1654Y-3.6457
X2.1654Y-3.8346
X2.2322Y-3.6733
X2.2322Y-3.807
X2.2598Y-3.7402
X2.0985Y-2.0985
X2.0985Y-2.2322
X2.1654Y-2.0709
X2.1654Y-2.2598
X2.2322Y-2.0985
X2.2322Y-2.2322
X2.2598Y-2.1654
X5.8504Y-2.1654
X5.8781Y-2.0985
X5.8781Y-2.2322
X5.9449Y-2.0709
X6.0117Y-2.0985
X6.0117Y-2.2322
X6.0394Y-2.1654
T2
X5.9449Y-3.7402
X2.1654Y-3.7402
X2.1654Y-2.1654
X5.9449Y-2.1654
T0
M30
