G04 #@! TF.GenerationSoftware,KiCad,Pcbnew,5.1.5+dfsg1-2build2*
G04 #@! TF.CreationDate,2021-10-18T22:49:55+02:00*
G04 #@! TF.ProjectId,temperature-logger,74656d70-6572-4617-9475-72652d6c6f67,rev?*
G04 #@! TF.SameCoordinates,Original*
G04 #@! TF.FileFunction,Soldermask,Bot*
G04 #@! TF.FilePolarity,Negative*
%FSLAX46Y46*%
G04 Gerber Fmt 4.6, Leading zero omitted, Abs format (unit mm)*
G04 Created by KiCad (PCBNEW 5.1.5+dfsg1-2build2) date 2021-10-18 22:49:55*
%MOMM*%
%LPD*%
G04 APERTURE LIST*
%ADD10C,3.500000*%
%ADD11C,0.100000*%
%ADD12O,1.800000X3.600000*%
%ADD13C,0.900000*%
%ADD14C,0.985520*%
%ADD15C,0.988060*%
%ADD16C,0.784860*%
%ADD17R,1.300000X0.700000*%
%ADD18O,1.000000X2.100000*%
%ADD19O,1.000000X1.600000*%
%ADD20C,0.650000*%
%ADD21C,0.800000*%
%ADD22C,6.400000*%
G04 APERTURE END LIST*
D10*
X129200000Y-81500000D03*
X142800000Y-81500000D03*
X143900000Y-95000000D03*
X128100000Y-95000000D03*
D11*
G36*
X68924504Y-89901204D02*
G01*
X68948773Y-89904804D01*
X68972571Y-89910765D01*
X68995671Y-89919030D01*
X69017849Y-89929520D01*
X69038893Y-89942133D01*
X69058598Y-89956747D01*
X69076777Y-89973223D01*
X69093253Y-89991402D01*
X69107867Y-90011107D01*
X69120480Y-90032151D01*
X69130970Y-90054329D01*
X69139235Y-90077429D01*
X69145196Y-90101227D01*
X69148796Y-90125496D01*
X69150000Y-90150000D01*
X69150000Y-93250000D01*
X69148796Y-93274504D01*
X69145196Y-93298773D01*
X69139235Y-93322571D01*
X69130970Y-93345671D01*
X69120480Y-93367849D01*
X69107867Y-93388893D01*
X69093253Y-93408598D01*
X69076777Y-93426777D01*
X69058598Y-93443253D01*
X69038893Y-93457867D01*
X69017849Y-93470480D01*
X68995671Y-93480970D01*
X68972571Y-93489235D01*
X68948773Y-93495196D01*
X68924504Y-93498796D01*
X68900000Y-93500000D01*
X67600000Y-93500000D01*
X67575496Y-93498796D01*
X67551227Y-93495196D01*
X67527429Y-93489235D01*
X67504329Y-93480970D01*
X67482151Y-93470480D01*
X67461107Y-93457867D01*
X67441402Y-93443253D01*
X67423223Y-93426777D01*
X67406747Y-93408598D01*
X67392133Y-93388893D01*
X67379520Y-93367849D01*
X67369030Y-93345671D01*
X67360765Y-93322571D01*
X67354804Y-93298773D01*
X67351204Y-93274504D01*
X67350000Y-93250000D01*
X67350000Y-90150000D01*
X67351204Y-90125496D01*
X67354804Y-90101227D01*
X67360765Y-90077429D01*
X67369030Y-90054329D01*
X67379520Y-90032151D01*
X67392133Y-90011107D01*
X67406747Y-89991402D01*
X67423223Y-89973223D01*
X67441402Y-89956747D01*
X67461107Y-89942133D01*
X67482151Y-89929520D01*
X67504329Y-89919030D01*
X67527429Y-89910765D01*
X67551227Y-89904804D01*
X67575496Y-89901204D01*
X67600000Y-89900000D01*
X68900000Y-89900000D01*
X68924504Y-89901204D01*
G37*
D12*
X71750000Y-91700000D03*
D11*
G36*
X90924504Y-89901204D02*
G01*
X90948773Y-89904804D01*
X90972571Y-89910765D01*
X90995671Y-89919030D01*
X91017849Y-89929520D01*
X91038893Y-89942133D01*
X91058598Y-89956747D01*
X91076777Y-89973223D01*
X91093253Y-89991402D01*
X91107867Y-90011107D01*
X91120480Y-90032151D01*
X91130970Y-90054329D01*
X91139235Y-90077429D01*
X91145196Y-90101227D01*
X91148796Y-90125496D01*
X91150000Y-90150000D01*
X91150000Y-93250000D01*
X91148796Y-93274504D01*
X91145196Y-93298773D01*
X91139235Y-93322571D01*
X91130970Y-93345671D01*
X91120480Y-93367849D01*
X91107867Y-93388893D01*
X91093253Y-93408598D01*
X91076777Y-93426777D01*
X91058598Y-93443253D01*
X91038893Y-93457867D01*
X91017849Y-93470480D01*
X90995671Y-93480970D01*
X90972571Y-93489235D01*
X90948773Y-93495196D01*
X90924504Y-93498796D01*
X90900000Y-93500000D01*
X89600000Y-93500000D01*
X89575496Y-93498796D01*
X89551227Y-93495196D01*
X89527429Y-93489235D01*
X89504329Y-93480970D01*
X89482151Y-93470480D01*
X89461107Y-93457867D01*
X89441402Y-93443253D01*
X89423223Y-93426777D01*
X89406747Y-93408598D01*
X89392133Y-93388893D01*
X89379520Y-93367849D01*
X89369030Y-93345671D01*
X89360765Y-93322571D01*
X89354804Y-93298773D01*
X89351204Y-93274504D01*
X89350000Y-93250000D01*
X89350000Y-90150000D01*
X89351204Y-90125496D01*
X89354804Y-90101227D01*
X89360765Y-90077429D01*
X89369030Y-90054329D01*
X89379520Y-90032151D01*
X89392133Y-90011107D01*
X89406747Y-89991402D01*
X89423223Y-89973223D01*
X89441402Y-89956747D01*
X89461107Y-89942133D01*
X89482151Y-89929520D01*
X89504329Y-89919030D01*
X89527429Y-89910765D01*
X89551227Y-89904804D01*
X89575496Y-89901204D01*
X89600000Y-89900000D01*
X90900000Y-89900000D01*
X90924504Y-89901204D01*
G37*
D12*
X93750000Y-91700000D03*
D11*
G36*
X112924504Y-89901204D02*
G01*
X112948773Y-89904804D01*
X112972571Y-89910765D01*
X112995671Y-89919030D01*
X113017849Y-89929520D01*
X113038893Y-89942133D01*
X113058598Y-89956747D01*
X113076777Y-89973223D01*
X113093253Y-89991402D01*
X113107867Y-90011107D01*
X113120480Y-90032151D01*
X113130970Y-90054329D01*
X113139235Y-90077429D01*
X113145196Y-90101227D01*
X113148796Y-90125496D01*
X113150000Y-90150000D01*
X113150000Y-93250000D01*
X113148796Y-93274504D01*
X113145196Y-93298773D01*
X113139235Y-93322571D01*
X113130970Y-93345671D01*
X113120480Y-93367849D01*
X113107867Y-93388893D01*
X113093253Y-93408598D01*
X113076777Y-93426777D01*
X113058598Y-93443253D01*
X113038893Y-93457867D01*
X113017849Y-93470480D01*
X112995671Y-93480970D01*
X112972571Y-93489235D01*
X112948773Y-93495196D01*
X112924504Y-93498796D01*
X112900000Y-93500000D01*
X111600000Y-93500000D01*
X111575496Y-93498796D01*
X111551227Y-93495196D01*
X111527429Y-93489235D01*
X111504329Y-93480970D01*
X111482151Y-93470480D01*
X111461107Y-93457867D01*
X111441402Y-93443253D01*
X111423223Y-93426777D01*
X111406747Y-93408598D01*
X111392133Y-93388893D01*
X111379520Y-93367849D01*
X111369030Y-93345671D01*
X111360765Y-93322571D01*
X111354804Y-93298773D01*
X111351204Y-93274504D01*
X111350000Y-93250000D01*
X111350000Y-90150000D01*
X111351204Y-90125496D01*
X111354804Y-90101227D01*
X111360765Y-90077429D01*
X111369030Y-90054329D01*
X111379520Y-90032151D01*
X111392133Y-90011107D01*
X111406747Y-89991402D01*
X111423223Y-89973223D01*
X111441402Y-89956747D01*
X111461107Y-89942133D01*
X111482151Y-89929520D01*
X111504329Y-89919030D01*
X111527429Y-89910765D01*
X111551227Y-89904804D01*
X111575496Y-89901204D01*
X111600000Y-89900000D01*
X112900000Y-89900000D01*
X112924504Y-89901204D01*
G37*
D12*
X115750000Y-91700000D03*
D11*
G36*
X134924504Y-89901204D02*
G01*
X134948773Y-89904804D01*
X134972571Y-89910765D01*
X134995671Y-89919030D01*
X135017849Y-89929520D01*
X135038893Y-89942133D01*
X135058598Y-89956747D01*
X135076777Y-89973223D01*
X135093253Y-89991402D01*
X135107867Y-90011107D01*
X135120480Y-90032151D01*
X135130970Y-90054329D01*
X135139235Y-90077429D01*
X135145196Y-90101227D01*
X135148796Y-90125496D01*
X135150000Y-90150000D01*
X135150000Y-93250000D01*
X135148796Y-93274504D01*
X135145196Y-93298773D01*
X135139235Y-93322571D01*
X135130970Y-93345671D01*
X135120480Y-93367849D01*
X135107867Y-93388893D01*
X135093253Y-93408598D01*
X135076777Y-93426777D01*
X135058598Y-93443253D01*
X135038893Y-93457867D01*
X135017849Y-93470480D01*
X134995671Y-93480970D01*
X134972571Y-93489235D01*
X134948773Y-93495196D01*
X134924504Y-93498796D01*
X134900000Y-93500000D01*
X133600000Y-93500000D01*
X133575496Y-93498796D01*
X133551227Y-93495196D01*
X133527429Y-93489235D01*
X133504329Y-93480970D01*
X133482151Y-93470480D01*
X133461107Y-93457867D01*
X133441402Y-93443253D01*
X133423223Y-93426777D01*
X133406747Y-93408598D01*
X133392133Y-93388893D01*
X133379520Y-93367849D01*
X133369030Y-93345671D01*
X133360765Y-93322571D01*
X133354804Y-93298773D01*
X133351204Y-93274504D01*
X133350000Y-93250000D01*
X133350000Y-90150000D01*
X133351204Y-90125496D01*
X133354804Y-90101227D01*
X133360765Y-90077429D01*
X133369030Y-90054329D01*
X133379520Y-90032151D01*
X133392133Y-90011107D01*
X133406747Y-89991402D01*
X133423223Y-89973223D01*
X133441402Y-89956747D01*
X133461107Y-89942133D01*
X133482151Y-89929520D01*
X133504329Y-89919030D01*
X133527429Y-89910765D01*
X133551227Y-89904804D01*
X133575496Y-89901204D01*
X133600000Y-89900000D01*
X134900000Y-89900000D01*
X134924504Y-89901204D01*
G37*
D12*
X137750000Y-91700000D03*
D13*
X120500000Y-52170000D03*
X123500000Y-52170000D03*
D14*
X128716000Y-56590000D03*
X126684000Y-56590000D03*
D15*
X127700000Y-51510000D03*
D16*
X127065000Y-55320000D03*
X128335000Y-55320000D03*
X127065000Y-54050000D03*
X128335000Y-54050000D03*
X127065000Y-52780000D03*
X128335000Y-52780000D03*
D17*
X122000000Y-53200000D03*
X122000000Y-51300000D03*
D12*
X74500000Y-58250000D03*
X78000000Y-58250000D03*
X81500000Y-58250000D03*
D11*
G36*
X85674504Y-56451204D02*
G01*
X85698773Y-56454804D01*
X85722571Y-56460765D01*
X85745671Y-56469030D01*
X85767849Y-56479520D01*
X85788893Y-56492133D01*
X85808598Y-56506747D01*
X85826777Y-56523223D01*
X85843253Y-56541402D01*
X85857867Y-56561107D01*
X85870480Y-56582151D01*
X85880970Y-56604329D01*
X85889235Y-56627429D01*
X85895196Y-56651227D01*
X85898796Y-56675496D01*
X85900000Y-56700000D01*
X85900000Y-59800000D01*
X85898796Y-59824504D01*
X85895196Y-59848773D01*
X85889235Y-59872571D01*
X85880970Y-59895671D01*
X85870480Y-59917849D01*
X85857867Y-59938893D01*
X85843253Y-59958598D01*
X85826777Y-59976777D01*
X85808598Y-59993253D01*
X85788893Y-60007867D01*
X85767849Y-60020480D01*
X85745671Y-60030970D01*
X85722571Y-60039235D01*
X85698773Y-60045196D01*
X85674504Y-60048796D01*
X85650000Y-60050000D01*
X84350000Y-60050000D01*
X84325496Y-60048796D01*
X84301227Y-60045196D01*
X84277429Y-60039235D01*
X84254329Y-60030970D01*
X84232151Y-60020480D01*
X84211107Y-60007867D01*
X84191402Y-59993253D01*
X84173223Y-59976777D01*
X84156747Y-59958598D01*
X84142133Y-59938893D01*
X84129520Y-59917849D01*
X84119030Y-59895671D01*
X84110765Y-59872571D01*
X84104804Y-59848773D01*
X84101204Y-59824504D01*
X84100000Y-59800000D01*
X84100000Y-56700000D01*
X84101204Y-56675496D01*
X84104804Y-56651227D01*
X84110765Y-56627429D01*
X84119030Y-56604329D01*
X84129520Y-56582151D01*
X84142133Y-56561107D01*
X84156747Y-56541402D01*
X84173223Y-56523223D01*
X84191402Y-56506747D01*
X84211107Y-56492133D01*
X84232151Y-56479520D01*
X84254329Y-56469030D01*
X84277429Y-56460765D01*
X84301227Y-56454804D01*
X84325496Y-56451204D01*
X84350000Y-56450000D01*
X85650000Y-56450000D01*
X85674504Y-56451204D01*
G37*
D12*
X92500000Y-58250000D03*
X96000000Y-58250000D03*
X99500000Y-58250000D03*
X103000000Y-58250000D03*
X106500000Y-58250000D03*
D11*
G36*
X110674504Y-56451204D02*
G01*
X110698773Y-56454804D01*
X110722571Y-56460765D01*
X110745671Y-56469030D01*
X110767849Y-56479520D01*
X110788893Y-56492133D01*
X110808598Y-56506747D01*
X110826777Y-56523223D01*
X110843253Y-56541402D01*
X110857867Y-56561107D01*
X110870480Y-56582151D01*
X110880970Y-56604329D01*
X110889235Y-56627429D01*
X110895196Y-56651227D01*
X110898796Y-56675496D01*
X110900000Y-56700000D01*
X110900000Y-59800000D01*
X110898796Y-59824504D01*
X110895196Y-59848773D01*
X110889235Y-59872571D01*
X110880970Y-59895671D01*
X110870480Y-59917849D01*
X110857867Y-59938893D01*
X110843253Y-59958598D01*
X110826777Y-59976777D01*
X110808598Y-59993253D01*
X110788893Y-60007867D01*
X110767849Y-60020480D01*
X110745671Y-60030970D01*
X110722571Y-60039235D01*
X110698773Y-60045196D01*
X110674504Y-60048796D01*
X110650000Y-60050000D01*
X109350000Y-60050000D01*
X109325496Y-60048796D01*
X109301227Y-60045196D01*
X109277429Y-60039235D01*
X109254329Y-60030970D01*
X109232151Y-60020480D01*
X109211107Y-60007867D01*
X109191402Y-59993253D01*
X109173223Y-59976777D01*
X109156747Y-59958598D01*
X109142133Y-59938893D01*
X109129520Y-59917849D01*
X109119030Y-59895671D01*
X109110765Y-59872571D01*
X109104804Y-59848773D01*
X109101204Y-59824504D01*
X109100000Y-59800000D01*
X109100000Y-56700000D01*
X109101204Y-56675496D01*
X109104804Y-56651227D01*
X109110765Y-56627429D01*
X109119030Y-56604329D01*
X109129520Y-56582151D01*
X109142133Y-56561107D01*
X109156747Y-56541402D01*
X109173223Y-56523223D01*
X109191402Y-56506747D01*
X109211107Y-56492133D01*
X109232151Y-56479520D01*
X109254329Y-56469030D01*
X109277429Y-56460765D01*
X109301227Y-56454804D01*
X109325496Y-56451204D01*
X109350000Y-56450000D01*
X110650000Y-56450000D01*
X110674504Y-56451204D01*
G37*
D10*
X63200000Y-81500000D03*
X76800000Y-81500000D03*
X77900000Y-95000000D03*
X62100000Y-95000000D03*
X85200000Y-81500000D03*
X98800000Y-81500000D03*
X99900000Y-95000000D03*
X84100000Y-95000000D03*
X107200000Y-81500000D03*
X120800000Y-81500000D03*
X121900000Y-95000000D03*
X106100000Y-95000000D03*
D18*
X139320000Y-56835000D03*
X130680000Y-56835000D03*
D19*
X139320000Y-52655000D03*
X130680000Y-52655000D03*
D20*
X132110000Y-56305000D03*
X137890000Y-56305000D03*
D21*
X152697056Y-93302944D03*
X151000000Y-92600000D03*
X149302944Y-93302944D03*
X148600000Y-95000000D03*
X149302944Y-96697056D03*
X151000000Y-97400000D03*
X152697056Y-96697056D03*
X153400000Y-95000000D03*
D22*
X151000000Y-95000000D03*
D21*
X56697056Y-93302944D03*
X55000000Y-92600000D03*
X53302944Y-93302944D03*
X52600000Y-95000000D03*
X53302944Y-96697056D03*
X55000000Y-97400000D03*
X56697056Y-96697056D03*
X57400000Y-95000000D03*
D22*
X55000000Y-95000000D03*
D21*
X152697056Y-53302944D03*
X151000000Y-52600000D03*
X149302944Y-53302944D03*
X148600000Y-55000000D03*
X149302944Y-56697056D03*
X151000000Y-57400000D03*
X152697056Y-56697056D03*
X153400000Y-55000000D03*
D22*
X151000000Y-55000000D03*
D21*
X56697056Y-53302944D03*
X55000000Y-52600000D03*
X53302944Y-53302944D03*
X52600000Y-55000000D03*
X53302944Y-56697056D03*
X55000000Y-57400000D03*
X56697056Y-56697056D03*
X57400000Y-55000000D03*
D22*
X55000000Y-55000000D03*
M02*
