M48
; DRILL file {KiCad 5.1.5+dfsg1-2build2} date Mon 18 Oct 2021 10:49:57 PM CEST
; FORMAT={-:-/ absolute / inch / decimal}
; #@! TF.CreationDate,2021-10-18T22:49:57+02:00
; #@! TF.GenerationSoftware,Kicad,Pcbnew,5.1.5+dfsg1-2build2
; #@! TF.FileFunction,Plated,1,4,PTH
FMAT,2
INCH
T1C0.0118
T2C0.0197
T3C0.0236
T4C0.0472
T5C0.0697
T6C0.1260
%
G90
G05
T1
X2.4006Y-2.5787
X2.4055Y-2.7096
X2.4242Y-2.8228
X2.436Y-2.685
X2.4557Y-3.1102
X2.4577Y-3.0118
X2.4675Y-2.6496
X2.4715Y-2.5512
X2.5148Y-2.437
X2.5148Y-3.1102
X2.5187Y-2.7205
X2.5187Y-2.8937
X2.5344Y-3.3031
X2.5896Y-2.9646
X2.5896Y-3.189
X2.5935Y-2.7717
X2.6014Y-2.7047
X2.6093Y-2.6299
X2.6211Y-2.9882
X2.6289Y-3.063
X2.6309Y-2.7657
X2.6329Y-2.4961
X2.6526Y-3.1417
X2.6722Y-2.7598
X2.6801Y-2.9016
X2.6801Y-2.9646
X2.7313Y-2.8976
X2.7892Y-2.8746
X2.8612Y-3.1417
X2.8809Y-2.9606
X2.8848Y-2.878
X2.9085Y-2.1732
X2.9124Y-2.4055
X2.9144Y-3.0295
X2.9163Y-3.2008
X2.9321Y-2.7913
X2.9439Y-2.9606
X2.9793Y-3.1142
X2.9793Y-3.3031
X3.003Y-2.2835
X3.0108Y-2.4055
X3.0344Y-2.4843
X3.0541Y-2.0236
X3.1053Y-2.9606
X3.1329Y-2.1575
X3.1407Y-2.2835
X3.1407Y-2.3622
X3.1762Y-2.9291
X3.2234Y-3.0079
X3.2325Y-3.1051
X3.2431Y-2.4882
X3.247Y-2.7913
X3.251Y-2.1969
X3.2707Y-3.1535
X3.2785Y-2.2835
X3.2904Y-2.1181
X3.3041Y-2.813
X3.3061Y-3.0472
X3.3219Y-2.9685
X3.3848Y-3.0787
X3.3927Y-3.2992
X3.3972Y-2.8072
X3.4478Y-3.1693
X3.4559Y-2.9902
X3.4675Y-2.7441
X3.4754Y-1.9921
X3.4911Y-2.9882
X3.4951Y-3.063
X3.5463Y-2.9646
X3.5974Y-2.9008
X3.6545Y-2.8547
X3.6565Y-2.7441
X3.6683Y-2.4252
X3.6762Y-2.1378
X3.6998Y-2.5276
X3.7096Y-2.0925
X3.7431Y-1.9921
X3.751Y-2.878
X3.751Y-2.9606
X3.751Y-3.0709
X3.7805Y-3.0295
X3.7982Y-2.7283
X3.7982Y-3.1693
X3.8022Y-2.6024
X3.814Y-2.1339
X3.814Y-2.4094
X3.814Y-2.9606
X3.8258Y-2.6417
X3.8297Y-2.6772
X3.8337Y-2.5866
X3.8376Y-3.3031
X3.8415Y-3.1102
X3.8494Y-2.2913
X3.8652Y-2.7008
X3.9006Y-2.6417
X3.9124Y-2.5472
X3.9203Y-2.4528
X3.9715Y-2.7441
X3.9754Y-2.9646
X3.9872Y-2.2913
X4.003Y-2.7008
X4.0187Y-2.2008
X4.0423Y-2.9311
X4.0502Y-2.5472
X4.0581Y-2.4528
X4.0896Y-3.0157
X4.0986Y-3.1012
X4.1093Y-2.748
X4.1171Y-1.9961
X4.1171Y-2.1299
X4.1368Y-3.1575
X4.1407Y-2.7008
X4.1722Y-3.0433
X4.2352Y-2.4409
X4.251Y-2.7638
X4.251Y-2.9646
X4.251Y-3.0709
X4.2589Y-3.3071
X4.2726Y-2.5551
X4.2785Y-2.5197
X4.2904Y-2.7638
X4.3219Y-3.1614
X4.322Y-2.9921
X4.3612Y-3.063
X4.377Y-1.9961
X4.377Y-2.1299
X4.4124Y-2.0614
X4.4281Y-2.9843
X4.4636Y-2.6024
X4.4636Y-2.7638
X4.4636Y-2.9008
X4.4872Y-2.0197
X4.4872Y-2.0984
X4.499Y-2.4016
X4.5226Y-2.361
X4.5305Y-2.6732
X4.5384Y-2.5315
X4.5541Y-2.2913
X4.5541Y-2.748
X4.5974Y-2.3346
X4.5974Y-2.9843
X4.6093Y-2.0197
X4.6093Y-2.0945
X4.6093Y-3.0709
X4.6171Y-2.878
X4.6191Y-2.7067
X4.6473Y-2.4182
X4.6486Y-3.0295
X4.6565Y-2.1417
X4.6565Y-2.8071
X4.6683Y-3.1654
X4.6722Y-2.9882
X4.6732Y-2.4016
X4.6801Y-2.2126
X4.6919Y-2.4961
X4.7012Y-2.414
X4.7116Y-3.1181
X4.7156Y-2.7362
X4.7156Y-3.311
X4.7195Y-2.7008
X4.7392Y-2.4213
X4.7431Y-2.1732
X4.7569Y-2.5807
X4.7628Y-2.5453
X4.7628Y-2.811
X4.7667Y-2.2244
X4.7667Y-2.6929
X4.7667Y-2.7362
X4.7667Y-2.9606
X4.7982Y-2.2008
X4.8022Y-2.4882
X4.814Y-2.0197
X4.814Y-2.0945
X4.8179Y-2.1378
X4.8179Y-2.5669
X4.8179Y-2.6929
X4.8179Y-2.7362
X4.8179Y-2.8031
X4.8219Y-2.3268
X4.8219Y-2.4173
X4.8337Y-3.1417
X4.8415Y-2.3583
X4.8533Y-2.122
X4.8533Y-2.7567
X4.8573Y-2.3898
X4.8573Y-2.5197
X4.8826Y-2.6479
X4.8848Y-2.4134
X4.9104Y-2.9311
X4.9281Y-2.8504
X4.94Y-2.178
X4.9439Y-2.7343
X4.9478Y-3.1417
X4.9518Y-2.7913
X4.9518Y-3.0039
X4.9644Y-3.1012
X4.9754Y-2.6732
X4.9793Y-2.5748
X4.9833Y-2.7618
X4.9872Y-2.9724
X4.999Y-2.8543
X5.0344Y-2.3819
X5.0394Y-2.8131
X5.0404Y-2.7224
X5.0541Y-2.626
X5.0541Y-2.9724
X5.0699Y-2.2913
X5.0974Y-2.9724
X5.1014Y-2.6969
X5.1132Y-3.0748
X5.1171Y-3.0315
X5.1211Y-2.5591
X5.125Y-2.9941
X5.1289Y-2.4803
X5.1329Y-3.2992
X5.1368Y-2.811
X5.1683Y-2.6969
X5.1762Y-2.3819
X5.1841Y-3.1654
X5.188Y-2.7717
X5.1959Y-2.9803
X5.1998Y-2.4646
X5.2195Y-2.6299
X5.2274Y-3.063
X5.2362Y-2.4626
X5.251Y-2.5551
X5.2589Y-2.6299
X5.2589Y-2.752
X5.2785Y-2.9646
X5.3061Y-2.6299
X5.314Y-2.6969
X5.315Y-2.3504
X5.315Y-2.4331
X5.3297Y-2.9008
X5.378Y-2.4144
X5.3841Y-2.376
X5.3967Y-2.9646
X5.4045Y-2.7756
X5.44Y-2.9055
X5.4518Y-2.4567
X5.4715Y-2.3268
X5.4715Y-2.5197
X5.4715Y-3.0709
X5.4833Y-2.5906
X5.4833Y-2.878
X5.5069Y-2.9567
X5.5108Y-3.0709
X5.5148Y-3.0295
X5.5187Y-2.4803
X5.5266Y-3.1693
X5.5344Y-2.5906
X5.5344Y-2.6378
X5.5581Y-2.378
X5.5581Y-2.5236
X5.5778Y-3.122
X5.5778Y-3.2992
X5.5837Y-2.8366
X5.5837Y-3.0531
X5.5974Y-2.6378
X5.6093Y-2.7244
X5.6407Y-2.6417
X5.6427Y-2.7368
X5.7215Y-2.8366
X5.7215Y-3.0531
X5.7313Y-2.3976
X5.8396Y-2.8366
X5.8396Y-3.0531
T2
X5.8504Y-3.7402
X5.8781Y-3.6733
X5.8781Y-3.807
X5.9449Y-3.6457
X5.9449Y-3.8346
X6.0117Y-3.6733
X6.0117Y-3.807
X6.0394Y-3.7402
X2.0709Y-2.1654
X2.0985Y-2.0985
X2.0985Y-2.2322
X2.1654Y-2.0709
X2.1654Y-2.2598
X2.2322Y-2.0985
X2.2322Y-2.2322
X2.2598Y-2.1654
X5.8504Y-2.1654
X5.8781Y-2.0985
X5.8781Y-2.2322
X5.9449Y-2.0709
X5.9449Y-2.2598
X6.0117Y-2.0985
X6.0117Y-2.2322
X6.0394Y-2.1654
X2.0709Y-3.7402
X2.0985Y-3.6733
X2.0985Y-3.807
X2.1654Y-3.6457
X2.1654Y-3.8346
X2.2322Y-3.6733
X2.2322Y-3.807
X2.2598Y-3.7402
T4
X5.2854Y-3.6102
X5.4232Y-3.6102
X2.687Y-3.6102
X2.8248Y-3.6102
X3.5531Y-3.6102
X3.6909Y-3.6102
X3.6417Y-2.2933
X3.7795Y-2.2933
X3.9173Y-2.2933
X4.0551Y-2.2933
X4.1929Y-2.2933
X4.3307Y-2.2933
X2.9331Y-2.2933
X3.0709Y-2.2933
X3.2087Y-2.2933
X3.3465Y-2.2933
X4.4193Y-3.6102
X4.5571Y-3.6102
T5
X3.311Y-3.7402
X3.3543Y-3.2087
X3.8898Y-3.2087
X3.9331Y-3.7402
X2.4449Y-3.7402
X2.4882Y-3.2087
X3.0236Y-3.2087
X3.0669Y-3.7402
X4.1772Y-3.7402
X4.2205Y-3.2087
X4.7559Y-3.2087
X4.7992Y-3.7402
X5.0433Y-3.7402
X5.0866Y-3.2087
X5.622Y-3.2087
X5.6654Y-3.7402
T6
X5.9449Y-3.7402
X2.1654Y-2.1654
X5.9449Y-2.1654
X2.1654Y-3.7402
T3
X5.1449Y-2.0848G85X5.1449Y-2.0612
G05
X5.1449Y-2.2593G85X5.1449Y-2.2159
G05
X5.485Y-2.0848G85X5.485Y-2.0612
G05
X5.485Y-2.2593G85X5.485Y-2.2159
G05
T0
M30
