M48
; DRILL file {KiCad 6.0.2-378541a8eb~116~ubuntu20.04.1} date Tue 01 Mar 2022 01:47:03 PM CET
; FORMAT={-:-/ absolute / metric / decimal}
; #@! TF.CreationDate,2022-03-01T13:47:03+01:00
; #@! TF.GenerationSoftware,Kicad,Pcbnew,6.0.2-378541a8eb~116~ubuntu20.04.1
; #@! TF.FileFunction,Plated,1,4,PTH
FMAT,2
METRIC
; #@! TA.AperFunction,Plated,PTH,ViaDrill
T1C0.300
; #@! TA.AperFunction,Plated,PTH,ComponentDrill
T2C0.500
; #@! TA.AperFunction,Plated,PTH,ComponentDrill
T3C0.600
; #@! TA.AperFunction,Plated,PTH,ComponentDrill
T4C1.200
; #@! TA.AperFunction,Plated,PTH,ComponentDrill
T5C1.770
; #@! TA.AperFunction,Plated,PTH,ComponentDrill
T6C3.200
%
G90
G05
T1
X60.975Y-65.5
X61.1Y-68.825
X61.575Y-71.7
X61.875Y-68.2
X62.375Y-79.0
X62.425Y-76.5
X62.675Y-67.3
X62.775Y-64.8
X63.875Y-61.9
X63.875Y-79.0
X63.975Y-69.1
X63.975Y-73.5
X64.375Y-83.9
X65.775Y-75.3
X65.775Y-81.0
X65.875Y-70.4
X66.075Y-68.7
X66.275Y-66.8
X66.575Y-75.9
X66.775Y-77.8
X66.825Y-70.25
X66.875Y-63.4
X67.375Y-79.8
X67.875Y-70.1
X68.075Y-73.7
X68.075Y-75.3
X69.375Y-73.6
X70.845Y-73.015
X72.675Y-79.8
X73.175Y-75.2
X73.275Y-73.1
X73.875Y-55.2
X73.975Y-61.1
X74.025Y-76.95
X74.075Y-81.3
X74.475Y-70.9
X74.775Y-75.2
X75.675Y-79.1
X75.675Y-83.9
X76.275Y-58.0
X76.475Y-61.1
X77.075Y-63.1
X77.575Y-51.4
X78.875Y-75.2
X79.575Y-54.8
X79.775Y-58.0
X79.775Y-60.0
X80.675Y-74.4
X81.875Y-76.4
X82.105Y-78.87
X82.375Y-63.2
X82.475Y-70.9
X82.575Y-55.8
X83.075Y-80.1
X83.275Y-58.0
X83.575Y-53.8
X83.925Y-71.45
X83.975Y-77.4
X84.375Y-75.4
X85.975Y-78.2
X86.175Y-83.8
X86.289Y-71.303
X87.575Y-80.5
X87.78Y-75.95
X88.075Y-69.7
X88.275Y-50.6
X88.675Y-75.9
X88.775Y-77.8
X90.075Y-75.3
X91.375Y-73.68
X92.825Y-72.51
X92.875Y-69.7
X93.175Y-61.6
X93.375Y-54.3
X93.975Y-64.2
X94.225Y-53.15
X95.075Y-50.6
X95.275Y-73.1
X95.275Y-75.2
X95.275Y-78.0
X96.025Y-76.95
X96.475Y-69.3
X96.475Y-80.5
X96.575Y-66.1
X96.875Y-54.2
X96.875Y-61.2
X96.875Y-75.2
X97.175Y-67.1
X97.275Y-68.0
X97.375Y-65.7
X97.475Y-83.9
X97.575Y-79.0
X97.775Y-58.2
X98.175Y-68.6
X99.075Y-67.1
X99.375Y-64.7
X99.575Y-62.3
X100.875Y-69.7
X100.975Y-75.3
X101.275Y-58.2
X101.675Y-68.6
X102.075Y-55.9
X102.675Y-74.45
X102.875Y-64.7
X103.075Y-62.3
X103.875Y-76.6
X104.105Y-78.77
X104.375Y-69.8
X104.575Y-50.7
X104.575Y-54.1
X105.075Y-80.2
X105.175Y-68.6
X105.975Y-77.3
X107.575Y-62.0
X107.975Y-70.2
X107.975Y-75.3
X107.975Y-78.0
X108.175Y-84.0
X108.525Y-64.9
X108.675Y-64.0
X108.975Y-70.2
X109.775Y-80.3
X109.78Y-76.0
X110.775Y-77.8
X111.175Y-50.7
X111.175Y-54.1
X112.075Y-52.36
X112.475Y-75.8
X113.375Y-66.1
X113.375Y-70.2
X113.375Y-73.68
X113.975Y-51.3
X113.975Y-53.3
X114.275Y-61.0
X114.875Y-59.97
X115.075Y-67.9
X115.275Y-64.3
X115.675Y-58.2
X115.675Y-69.8
X116.775Y-59.3
X116.775Y-75.8
X117.075Y-51.3
X117.075Y-53.2
X117.075Y-78.0
X117.275Y-73.1
X117.325Y-68.75
X118.042Y-61.421
X118.075Y-76.95
X118.275Y-54.4
X118.275Y-71.3
X118.575Y-80.4
X118.675Y-75.9
X118.698Y-61.0
X118.875Y-56.2
X119.175Y-63.4
X119.411Y-61.316
X119.675Y-79.2
X119.775Y-69.5
X119.775Y-84.1
X119.875Y-68.6
X120.375Y-61.5
X120.475Y-55.2
X120.825Y-65.55
X120.975Y-64.65
X120.975Y-71.4
X121.075Y-56.5
X121.075Y-68.4
X121.075Y-69.5
X121.075Y-75.2
X121.875Y-55.9
X121.975Y-63.2
X122.175Y-61.4
X122.375Y-54.3
X122.375Y-65.2
X122.375Y-68.4
X122.375Y-69.5
X122.375Y-71.2
X122.475Y-59.1
X122.775Y-79.8
X122.975Y-59.9
X123.215Y-64.34
X123.275Y-53.9
X123.275Y-70.02
X124.018Y-67.257
X124.375Y-61.4
X124.375Y-63.2
X124.725Y-74.45
X125.175Y-72.4
X125.335Y-56.72
X125.475Y-55.32
X125.575Y-69.45
X125.675Y-79.8
X125.775Y-70.9
X125.775Y-76.3
X126.095Y-78.77
X126.375Y-65.2
X126.375Y-67.9
X126.575Y-70.15
X126.675Y-75.5
X126.975Y-72.5
X127.875Y-60.5
X128.0Y-71.453
X128.025Y-69.15
X128.375Y-66.7
X128.375Y-75.5
X128.775Y-58.2
X129.475Y-75.5
X129.575Y-68.5
X129.875Y-78.1
X129.975Y-77.0
X130.075Y-65.0
X130.175Y-76.05
X130.275Y-63.0
X130.375Y-83.8
X130.475Y-71.4
X131.275Y-68.5
X131.475Y-60.5
X131.675Y-80.4
X131.775Y-70.4
X131.975Y-75.7
X132.075Y-62.6
X132.575Y-66.8
X132.775Y-77.8
X133.0Y-62.55
X133.375Y-64.9
X133.575Y-66.8
X133.575Y-69.9
X134.075Y-75.3
X134.775Y-66.8
X134.975Y-68.5
X135.0Y-59.7
X135.0Y-61.8
X135.375Y-73.68
X136.6Y-61.325
X136.755Y-60.35
X137.075Y-75.3
X137.275Y-70.5
X138.175Y-73.8
X138.475Y-62.4
X138.975Y-59.1
X138.975Y-64.0
X138.975Y-78.0
X139.275Y-65.8
X139.275Y-73.1
X139.875Y-75.1
X139.975Y-78.0
X140.075Y-76.95
X140.175Y-63.0
X140.375Y-80.5
X140.575Y-65.8
X140.575Y-67.0
X141.175Y-60.4
X141.175Y-64.1
X141.675Y-79.3
X141.675Y-83.8
X141.825Y-72.05
X141.825Y-77.55
X142.175Y-67.0
X142.475Y-69.2
X142.655Y-70.49
X143.275Y-67.1
X143.325Y-69.514
X145.325Y-72.05
X145.325Y-77.55
X145.575Y-60.9
X148.325Y-72.05
X148.325Y-77.55
T2
X52.6Y-55.0
X52.6Y-95.0
X53.303Y-53.303
X53.303Y-56.697
X53.303Y-93.303
X53.303Y-96.697
X55.0Y-52.6
X55.0Y-57.4
X55.0Y-92.6
X55.0Y-97.4
X56.697Y-53.303
X56.697Y-56.697
X56.697Y-93.303
X56.697Y-96.697
X57.4Y-55.0
X57.4Y-95.0
X148.6Y-55.0
X148.6Y-95.0
X149.303Y-53.303
X149.303Y-56.697
X149.303Y-93.303
X149.303Y-96.697
X151.0Y-52.6
X151.0Y-57.4
X151.0Y-92.6
X151.0Y-97.4
X152.697Y-53.303
X152.697Y-56.697
X152.697Y-93.303
X152.697Y-96.697
X153.4Y-55.0
X153.4Y-95.0
T4
X68.25Y-91.7
X71.75Y-91.7
X74.5Y-58.25
X78.0Y-58.25
X81.5Y-58.25
X85.0Y-58.25
X90.25Y-91.7
X92.5Y-58.25
X93.75Y-91.7
X96.0Y-58.25
X99.5Y-58.25
X103.0Y-58.25
X106.5Y-58.25
X110.0Y-58.25
X112.25Y-91.7
X115.75Y-91.7
X134.25Y-91.7
X137.75Y-91.7
T5
X62.1Y-95.0
X63.2Y-81.5
X76.8Y-81.5
X77.9Y-95.0
X84.1Y-95.0
X85.2Y-81.5
X98.8Y-81.5
X99.9Y-95.0
X106.1Y-95.0
X107.2Y-81.5
X120.8Y-81.5
X121.9Y-95.0
X128.1Y-95.0
X129.2Y-81.5
X142.8Y-81.5
X143.9Y-95.0
T6
X55.0Y-55.0
X55.0Y-95.0
X151.0Y-55.0
X151.0Y-95.0
T3
X130.68Y-52.955G85X130.68Y-52.355
G05
X130.68Y-57.385G85X130.68Y-56.285
G05
X139.32Y-52.955G85X139.32Y-52.355
G05
X139.32Y-57.385G85X139.32Y-56.285
G05
T0
M30
