G04 #@! TF.GenerationSoftware,KiCad,Pcbnew,6.0.2-378541a8eb~116~ubuntu20.04.1*
G04 #@! TF.CreationDate,2022-03-01T13:47:02+01:00*
G04 #@! TF.ProjectId,temperature-logger,74656d70-6572-4617-9475-72652d6c6f67,rev?*
G04 #@! TF.SameCoordinates,Original*
G04 #@! TF.FileFunction,Soldermask,Bot*
G04 #@! TF.FilePolarity,Negative*
%FSLAX46Y46*%
G04 Gerber Fmt 4.6, Leading zero omitted, Abs format (unit mm)*
G04 Created by KiCad (PCBNEW 6.0.2-378541a8eb~116~ubuntu20.04.1) date 2022-03-01 13:47:02*
%MOMM*%
%LPD*%
G01*
G04 APERTURE LIST*
G04 Aperture macros list*
%AMRoundRect*
0 Rectangle with rounded corners*
0 $1 Rounding radius*
0 $2 $3 $4 $5 $6 $7 $8 $9 X,Y pos of 4 corners*
0 Add a 4 corners polygon primitive as box body*
4,1,4,$2,$3,$4,$5,$6,$7,$8,$9,$2,$3,0*
0 Add four circle primitives for the rounded corners*
1,1,$1+$1,$2,$3*
1,1,$1+$1,$4,$5*
1,1,$1+$1,$6,$7*
1,1,$1+$1,$8,$9*
0 Add four rect primitives between the rounded corners*
20,1,$1+$1,$2,$3,$4,$5,0*
20,1,$1+$1,$4,$5,$6,$7,0*
20,1,$1+$1,$6,$7,$8,$9,0*
20,1,$1+$1,$8,$9,$2,$3,0*%
G04 Aperture macros list end*
%ADD10C,3.500000*%
%ADD11C,6.400000*%
%ADD12C,0.800000*%
%ADD13C,0.650000*%
%ADD14O,1.000000X1.600000*%
%ADD15O,1.000000X2.100000*%
%ADD16RoundRect,0.250000X0.650000X1.550000X-0.650000X1.550000X-0.650000X-1.550000X0.650000X-1.550000X0*%
%ADD17O,1.800000X3.600000*%
%ADD18C,0.900000*%
%ADD19RoundRect,0.250000X-0.650000X-1.550000X0.650000X-1.550000X0.650000X1.550000X-0.650000X1.550000X0*%
%ADD20R,1.300000X0.700000*%
%ADD21C,0.988060*%
%ADD22C,0.985520*%
%ADD23C,0.784860*%
G04 APERTURE END LIST*
D10*
X142800000Y-81500000D03*
X129200000Y-81500000D03*
X143900000Y-95000000D03*
X128100000Y-95000000D03*
D11*
X55000000Y-55000000D03*
D12*
X53302944Y-53302944D03*
X53302944Y-56697056D03*
X55000000Y-57400000D03*
X56697056Y-53302944D03*
X56697056Y-56697056D03*
X55000000Y-52600000D03*
X57400000Y-55000000D03*
X52600000Y-55000000D03*
X148600000Y-55000000D03*
X152697056Y-53302944D03*
X149302944Y-56697056D03*
D11*
X151000000Y-55000000D03*
D12*
X152697056Y-56697056D03*
X151000000Y-57400000D03*
X153400000Y-55000000D03*
X149302944Y-53302944D03*
X151000000Y-52600000D03*
X56697056Y-96697056D03*
X56697056Y-93302944D03*
X55000000Y-92600000D03*
X53302944Y-96697056D03*
X57400000Y-95000000D03*
X53302944Y-93302944D03*
D11*
X55000000Y-95000000D03*
D12*
X52600000Y-95000000D03*
X55000000Y-97400000D03*
D11*
X151000000Y-95000000D03*
D12*
X152697056Y-96697056D03*
X152697056Y-93302944D03*
X148600000Y-95000000D03*
X153400000Y-95000000D03*
X151000000Y-92600000D03*
X149302944Y-93302944D03*
X149302944Y-96697056D03*
X151000000Y-97400000D03*
D13*
X132110000Y-56305000D03*
X137890000Y-56305000D03*
D14*
X130680000Y-52655000D03*
D15*
X139320000Y-56835000D03*
X130680000Y-56835000D03*
D14*
X139320000Y-52655000D03*
D10*
X120800000Y-81500000D03*
X107200000Y-81500000D03*
X106100000Y-95000000D03*
X121900000Y-95000000D03*
X98800000Y-81500000D03*
X85200000Y-81500000D03*
X84100000Y-95000000D03*
X99900000Y-95000000D03*
X76800000Y-81500000D03*
X63200000Y-81500000D03*
X77900000Y-95000000D03*
X62100000Y-95000000D03*
D16*
X110000000Y-58250000D03*
D17*
X106500000Y-58250000D03*
X103000000Y-58250000D03*
X99500000Y-58250000D03*
X96000000Y-58250000D03*
X92500000Y-58250000D03*
D16*
X85000000Y-58250000D03*
D17*
X81500000Y-58250000D03*
X78000000Y-58250000D03*
X74500000Y-58250000D03*
D18*
X123500000Y-52170000D03*
X120500000Y-52170000D03*
D19*
X134250000Y-91700000D03*
D17*
X137750000Y-91700000D03*
D19*
X112250000Y-91700000D03*
D17*
X115750000Y-91700000D03*
D19*
X90250000Y-91700000D03*
D17*
X93750000Y-91700000D03*
D19*
X68250000Y-91700000D03*
D17*
X71750000Y-91700000D03*
D20*
X122000000Y-51300000D03*
X122000000Y-53200000D03*
D21*
X127700000Y-51510000D03*
D22*
X128716000Y-56590000D03*
X126684000Y-56590000D03*
D23*
X128335000Y-52780000D03*
X127065000Y-52780000D03*
X128335000Y-54050000D03*
X127065000Y-54050000D03*
X128335000Y-55320000D03*
X127065000Y-55320000D03*
M02*
