%TF.GenerationSoftware,KiCad,Pcbnew,(7.0.0)*%
%TF.CreationDate,2023-06-01T21:15:46+02:00*%
%TF.ProjectId,temperature-logger,74656d70-6572-4617-9475-72652d6c6f67,rev?*%
%TF.SameCoordinates,Original*%
%TF.FileFunction,Soldermask,Top*%
%TF.FilePolarity,Negative*%
%FSLAX46Y46*%
G04 Gerber Fmt 4.6, Leading zero omitted, Abs format (unit mm)*
G04 Created by KiCad (PCBNEW (7.0.0)) date 2023-06-01 21:15:46*
%MOMM*%
%LPD*%
G01*
G04 APERTURE LIST*
G04 Aperture macros list*
%AMRoundRect*
0 Rectangle with rounded corners*
0 $1 Rounding radius*
0 $2 $3 $4 $5 $6 $7 $8 $9 X,Y pos of 4 corners*
0 Add a 4 corners polygon primitive as box body*
4,1,4,$2,$3,$4,$5,$6,$7,$8,$9,$2,$3,0*
0 Add four circle primitives for the rounded corners*
1,1,$1+$1,$2,$3*
1,1,$1+$1,$4,$5*
1,1,$1+$1,$6,$7*
1,1,$1+$1,$8,$9*
0 Add four rect primitives between the rounded corners*
20,1,$1+$1,$2,$3,$4,$5,0*
20,1,$1+$1,$4,$5,$6,$7,0*
20,1,$1+$1,$6,$7,$8,$9,0*
20,1,$1+$1,$8,$9,$2,$3,0*%
%AMRotRect*
0 Rectangle, with rotation*
0 The origin of the aperture is its center*
0 $1 length*
0 $2 width*
0 $3 Rotation angle, in degrees counterclockwise*
0 Add horizontal line*
21,1,$1,$2,0,0,$3*%
%AMOutline4P*
0 Free polygon, 4 corners , with rotation*
0 The origin of the aperture is its center*
0 number of corners: always 4*
0 $1 to $8 corner X, Y*
0 $9 Rotation angle, in degrees counterclockwise*
0 create outline with 4 corners*
4,1,4,$1,$2,$3,$4,$5,$6,$7,$8,$1,$2,$9*%
G04 Aperture macros list end*
%ADD10C,3.500000*%
%ADD11RotRect,0.500000X0.600000X135.000000*%
%ADD12RotRect,0.500000X0.600000X315.000000*%
%ADD13RotRect,0.500000X0.600000X225.000000*%
%ADD14RotRect,0.500000X0.600000X45.000000*%
%ADD15R,0.900000X0.600000*%
%ADD16R,0.600000X0.500000*%
%ADD17RotRect,0.600000X0.900000X45.000000*%
%ADD18RotRect,0.600000X0.900000X225.000000*%
%ADD19R,0.500000X0.600000*%
%ADD20R,0.850000X1.225000*%
%ADD21C,0.800000*%
%ADD22C,6.400000*%
%ADD23C,0.650000*%
%ADD24R,0.600000X1.450000*%
%ADD25R,0.300000X1.450000*%
%ADD26O,1.000000X2.100000*%
%ADD27O,1.000000X1.600000*%
%ADD28RoundRect,0.250000X0.650000X1.550000X-0.650000X1.550000X-0.650000X-1.550000X0.650000X-1.550000X0*%
%ADD29O,1.800000X3.600000*%
%ADD30R,0.800000X0.900000*%
%ADD31R,0.900000X0.800000*%
%ADD32R,1.000000X0.800000*%
%ADD33C,0.900000*%
%ADD34R,0.700000X1.500000*%
%ADD35R,0.650000X1.060000*%
%ADD36R,1.500000X1.000000*%
%ADD37R,1.800000X1.000000*%
%ADD38Outline4P,-1.100000X-0.500000X1.100000X-0.500000X0.400000X0.500000X-0.400000X0.500000X270.000000*%
%ADD39R,1.840000X2.200000*%
%ADD40Outline4P,-1.100000X-0.425000X1.100000X-0.425000X0.500000X0.425000X-0.500000X0.425000X90.000000*%
%ADD41RoundRect,0.075000X-0.415425X-0.521491X0.521491X0.415425X0.415425X0.521491X-0.521491X-0.415425X0*%
%ADD42RoundRect,0.075000X0.415425X-0.521491X0.521491X-0.415425X-0.415425X0.521491X-0.521491X0.415425X0*%
%ADD43RoundRect,0.150000X0.150000X-0.825000X0.150000X0.825000X-0.150000X0.825000X-0.150000X-0.825000X0*%
%ADD44R,1.225000X0.850000*%
%ADD45RoundRect,0.250000X-0.650000X-1.550000X0.650000X-1.550000X0.650000X1.550000X-0.650000X1.550000X0*%
%ADD46R,0.600000X0.900000*%
%ADD47R,0.250000X0.500000*%
%ADD48R,1.600000X0.900000*%
%ADD49C,0.988060*%
%ADD50C,0.985520*%
G04 APERTURE END LIST*
D10*
%TO.C,J2*%
X142800000Y-81500000D03*
X129200000Y-81500000D03*
X143900000Y-95000000D03*
X128100000Y-95000000D03*
%TD*%
D11*
%TO.C,C1*%
X124130436Y-56748708D03*
X123465756Y-56084028D03*
%TD*%
D12*
%TO.C,C2*%
X114980475Y-62094436D03*
X115645155Y-62759116D03*
%TD*%
D13*
%TO.C,C3*%
X115998708Y-59619562D03*
X115334028Y-60284242D03*
%TD*%
D12*
%TO.C,C4*%
X117767659Y-66717659D03*
X118432339Y-67382339D03*
%TD*%
D14*
%TO.C,C5*%
X127001290Y-64880436D03*
X127665970Y-64215756D03*
%TD*%
D15*
%TO.C,C6*%
X138199999Y-66749999D03*
X138199999Y-68249999D03*
%TD*%
D16*
%TO.C,C7*%
X139399999Y-67029999D03*
X139399999Y-67969999D03*
%TD*%
D17*
%TO.C,C8*%
X127669669Y-65930329D03*
X128730329Y-64869669D03*
%TD*%
D18*
%TO.C,C9*%
X115330329Y-58569669D03*
X114269669Y-59630329D03*
%TD*%
D16*
%TO.C,C10*%
X138099999Y-65769999D03*
X138099999Y-64829999D03*
%TD*%
%TO.C,C11*%
X137399999Y-62669999D03*
X137399999Y-61729999D03*
%TD*%
D11*
%TO.C,C12*%
X117232339Y-67732339D03*
X116567659Y-67067659D03*
%TD*%
D16*
%TO.C,C13*%
X139249999Y-76029999D03*
X139249999Y-76969999D03*
%TD*%
D19*
%TO.C,C14*%
X136469999Y-78999999D03*
X135529999Y-78999999D03*
%TD*%
D16*
%TO.C,C15*%
X117249999Y-76029999D03*
X117249999Y-76969999D03*
%TD*%
D19*
%TO.C,C16*%
X114469999Y-78999999D03*
X113529999Y-78999999D03*
%TD*%
D16*
%TO.C,C17*%
X95249999Y-76029999D03*
X95249999Y-76969999D03*
%TD*%
D19*
%TO.C,C18*%
X92469999Y-78999999D03*
X91529999Y-78999999D03*
%TD*%
D16*
%TO.C,C19*%
X73249999Y-76029999D03*
X73249999Y-76969999D03*
%TD*%
D19*
%TO.C,C20*%
X70469999Y-78999999D03*
X69529999Y-78999999D03*
%TD*%
D15*
%TO.C,C22*%
X96999999Y-64649999D03*
X96999999Y-63149999D03*
%TD*%
D16*
%TO.C,C23*%
X95799999Y-65129999D03*
X95799999Y-66069999D03*
%TD*%
D20*
%TO.C,D1*%
X130999999Y-72687499D03*
X130999999Y-74312499D03*
%TD*%
%TO.C,D2*%
X132499999Y-74312499D03*
X132499999Y-72687499D03*
%TD*%
%TO.C,D3*%
X108999999Y-72687499D03*
X108999999Y-74312499D03*
%TD*%
%TO.C,D4*%
X110499999Y-74312499D03*
X110499999Y-72687499D03*
%TD*%
%TO.C,D5*%
X86999999Y-72687499D03*
X86999999Y-74312499D03*
%TD*%
%TO.C,D6*%
X88499998Y-74312499D03*
X88499998Y-72687499D03*
%TD*%
%TO.C,D7*%
X64999999Y-72687499D03*
X64999999Y-74312499D03*
%TD*%
%TO.C,D8*%
X66499999Y-74312499D03*
X66499999Y-72687499D03*
%TD*%
D19*
%TO.C,FB1*%
X140444999Y-78999999D03*
X139504999Y-78999999D03*
%TD*%
%TO.C,FB2*%
X131529999Y-78999999D03*
X132469999Y-78999999D03*
%TD*%
%TO.C,FB3*%
X118469999Y-78999999D03*
X117529999Y-78999999D03*
%TD*%
%TO.C,FB4*%
X109529999Y-78999999D03*
X110469999Y-78999999D03*
%TD*%
%TO.C,FB5*%
X96469999Y-78999999D03*
X95529999Y-78999999D03*
%TD*%
%TO.C,FB6*%
X87529999Y-78999999D03*
X88469999Y-78999999D03*
%TD*%
%TO.C,FB7*%
X74469999Y-78999999D03*
X73529999Y-78999999D03*
%TD*%
%TO.C,FB8*%
X65529999Y-78999999D03*
X66469999Y-78999999D03*
%TD*%
D21*
%TO.C,H1*%
X52600000Y-55000000D03*
X53302944Y-53302944D03*
X53302944Y-56697056D03*
X55000000Y-52600000D03*
D22*
X55000000Y-55000000D03*
D21*
X55000000Y-57400000D03*
X56697056Y-53302944D03*
X56697056Y-56697056D03*
X57400000Y-55000000D03*
%TD*%
%TO.C,H2*%
X148600000Y-55000000D03*
X149302944Y-53302944D03*
X149302944Y-56697056D03*
X151000000Y-52600000D03*
D22*
X151000000Y-55000000D03*
D21*
X151000000Y-57400000D03*
X152697056Y-53302944D03*
X152697056Y-56697056D03*
X153400000Y-55000000D03*
%TD*%
%TO.C,H3*%
X52600000Y-95000000D03*
X53302944Y-93302944D03*
X53302944Y-96697056D03*
X55000000Y-92600000D03*
D22*
X55000000Y-95000000D03*
D21*
X55000000Y-97400000D03*
X56697056Y-93302944D03*
X56697056Y-96697056D03*
X57400000Y-95000000D03*
%TD*%
%TO.C,H4*%
X148600000Y-95000000D03*
X149302944Y-93302944D03*
X149302944Y-96697056D03*
X151000000Y-92600000D03*
D22*
X151000000Y-95000000D03*
D21*
X151000000Y-97400000D03*
X152697056Y-93302944D03*
X152697056Y-96697056D03*
X153400000Y-95000000D03*
%TD*%
D23*
%TO.C,J1*%
X137890000Y-56305000D03*
X132110000Y-56305000D03*
D24*
X138199999Y-57749999D03*
X137399999Y-57749999D03*
D25*
X136249999Y-57749999D03*
X135249999Y-57749999D03*
X134749999Y-57749999D03*
X133749999Y-57749999D03*
D24*
X137399999Y-57749999D03*
X138199999Y-57749999D03*
X131799999Y-57749999D03*
X132599999Y-57749999D03*
D25*
X133249999Y-57749999D03*
X134249999Y-57749999D03*
X135749999Y-57749999D03*
X136749999Y-57749999D03*
D24*
X132599999Y-57749999D03*
X131799999Y-57749999D03*
D26*
X139319999Y-56834999D03*
D27*
X139319999Y-52654999D03*
D26*
X130679999Y-56834999D03*
D27*
X130679999Y-52654999D03*
%TD*%
D10*
%TO.C,J3*%
X120800000Y-81500000D03*
X107200000Y-81500000D03*
X121900000Y-95000000D03*
X106100000Y-95000000D03*
%TD*%
%TO.C,J4*%
X98800000Y-81500000D03*
X85200000Y-81500000D03*
X99900000Y-95000000D03*
X84100000Y-95000000D03*
%TD*%
%TO.C,J5*%
X76800000Y-81500000D03*
X63200000Y-81500000D03*
X77900000Y-95000000D03*
X62100000Y-95000000D03*
%TD*%
D28*
%TO.C,J6*%
X110000000Y-58250000D03*
D29*
X106499999Y-58249999D03*
X102999999Y-58249999D03*
X99499999Y-58249999D03*
X95999999Y-58249999D03*
X92499999Y-58249999D03*
%TD*%
D28*
%TO.C,J7*%
X85000000Y-58250000D03*
D29*
X81499999Y-58249999D03*
X77999999Y-58249999D03*
X74499999Y-58249999D03*
%TD*%
D30*
%TO.C,Q1*%
X105549999Y-63199999D03*
X107449999Y-63199999D03*
X106499999Y-61199999D03*
%TD*%
D31*
%TO.C,Q2*%
X107499999Y-66649999D03*
X107499999Y-64749999D03*
X105499999Y-65699999D03*
%TD*%
D30*
%TO.C,Q3*%
X102049999Y-63199999D03*
X103949999Y-63199999D03*
X102999999Y-61199999D03*
%TD*%
D31*
%TO.C,Q4*%
X103999999Y-66649999D03*
X103999999Y-64749999D03*
X101999999Y-65699999D03*
%TD*%
D30*
%TO.C,Q5*%
X98549999Y-63199999D03*
X100449999Y-63199999D03*
X99499999Y-61199999D03*
%TD*%
D31*
%TO.C,Q6*%
X100499999Y-66649999D03*
X100499999Y-64749999D03*
X98499999Y-65699999D03*
%TD*%
D16*
%TO.C,R1*%
X137399999Y-60669999D03*
X137399999Y-59729999D03*
%TD*%
%TO.C,R2*%
X132599999Y-59729999D03*
X132599999Y-60669999D03*
%TD*%
D12*
%TO.C,R3*%
X116067659Y-57767659D03*
X116732339Y-58432339D03*
%TD*%
D16*
%TO.C,R4*%
X130999999Y-76719999D03*
X130999999Y-75779999D03*
%TD*%
D19*
%TO.C,R5*%
X132219999Y-71249999D03*
X131279999Y-71249999D03*
%TD*%
D16*
%TO.C,R6*%
X139249999Y-72219999D03*
X139249999Y-71279999D03*
%TD*%
%TO.C,R7*%
X108999999Y-76719999D03*
X108999999Y-75779999D03*
%TD*%
D19*
%TO.C,R8*%
X110369999Y-71249999D03*
X109429999Y-71249999D03*
%TD*%
D16*
%TO.C,R9*%
X117249999Y-72219999D03*
X117249999Y-71279999D03*
%TD*%
%TO.C,R10*%
X86999999Y-76719999D03*
X86999999Y-75779999D03*
%TD*%
D19*
%TO.C,R11*%
X88219999Y-71249999D03*
X87279999Y-71249999D03*
%TD*%
D16*
%TO.C,R12*%
X95249999Y-72219999D03*
X95249999Y-71279999D03*
%TD*%
%TO.C,R13*%
X64999999Y-76719999D03*
X64999999Y-75779999D03*
%TD*%
D19*
%TO.C,R14*%
X66219999Y-71249999D03*
X65279999Y-71249999D03*
%TD*%
D16*
%TO.C,R15*%
X73249999Y-72219999D03*
X73249999Y-71279999D03*
%TD*%
%TO.C,R16*%
X81999999Y-61969999D03*
X81999999Y-61029999D03*
%TD*%
%TO.C,R17*%
X77599999Y-61029999D03*
X77599999Y-61969999D03*
%TD*%
%TO.C,R18*%
X105199999Y-66829999D03*
X105199999Y-67769999D03*
%TD*%
D19*
%TO.C,R19*%
X106729999Y-67899999D03*
X107669999Y-67899999D03*
%TD*%
D16*
%TO.C,R20*%
X101699999Y-66829999D03*
X101699999Y-67769999D03*
%TD*%
D19*
%TO.C,R21*%
X103229999Y-67899999D03*
X104169999Y-67899999D03*
%TD*%
D16*
%TO.C,R22*%
X98199999Y-66829999D03*
X98199999Y-67769999D03*
%TD*%
D32*
%TO.C,SW1*%
X125649999Y-53279999D03*
X125649999Y-51069999D03*
D33*
X123500000Y-52170000D03*
X120500000Y-52170000D03*
D32*
X118349999Y-53279999D03*
X118349999Y-51069999D03*
D34*
X124249999Y-53929999D03*
X121249999Y-53929999D03*
X119749999Y-53929999D03*
%TD*%
D35*
%TO.C,U1*%
X134049999Y-62349999D03*
X134999999Y-62349999D03*
X135949999Y-62349999D03*
X135949999Y-60149999D03*
X134999999Y-60149999D03*
X134049999Y-60149999D03*
%TD*%
D36*
%TO.C,U2*%
X136479999Y-68249999D03*
D37*
X136333499Y-66749999D03*
D38*
X135076200Y-66750000D03*
D39*
X133666499Y-66749999D03*
D40*
X132333000Y-66750000D03*
D36*
X136479999Y-65249999D03*
%TD*%
D41*
%TO.C,U3*%
X116612124Y-63248788D03*
X116965678Y-63602342D03*
X117319231Y-63955895D03*
X117672785Y-64309449D03*
X118026338Y-64663002D03*
X118379891Y-65016555D03*
X118733445Y-65370109D03*
X119086998Y-65723662D03*
X119440551Y-66077215D03*
X119794105Y-66430769D03*
X120147658Y-66784322D03*
X120501212Y-67137876D03*
D42*
X122498788Y-67137876D03*
X122852342Y-66784322D03*
X123205895Y-66430769D03*
X123559449Y-66077215D03*
X123913002Y-65723662D03*
X124266555Y-65370109D03*
X124620109Y-65016555D03*
X124973662Y-64663002D03*
X125327215Y-64309449D03*
X125680769Y-63955895D03*
X126034322Y-63602342D03*
X126387876Y-63248788D03*
D41*
X126387876Y-61251212D03*
X126034322Y-60897658D03*
X125680769Y-60544105D03*
X125327215Y-60190551D03*
X124973662Y-59836998D03*
X124620109Y-59483445D03*
X124266555Y-59129891D03*
X123913002Y-58776338D03*
X123559449Y-58422785D03*
X123205895Y-58069231D03*
X122852342Y-57715678D03*
X122498788Y-57362124D03*
D42*
X120501212Y-57362124D03*
X120147658Y-57715678D03*
X119794105Y-58069231D03*
X119440551Y-58422785D03*
X119086998Y-58776338D03*
X118733445Y-59129891D03*
X118379891Y-59483445D03*
X118026338Y-59836998D03*
X117672785Y-60190551D03*
X117319231Y-60544105D03*
X116965678Y-60897658D03*
X116612124Y-61251212D03*
%TD*%
D43*
%TO.C,U4*%
X134095000Y-76975000D03*
X135365000Y-76975000D03*
X136635000Y-76975000D03*
X137905000Y-76975000D03*
X137905000Y-72025000D03*
X136635000Y-72025000D03*
X135365000Y-72025000D03*
X134095000Y-72025000D03*
%TD*%
%TO.C,U5*%
X112095000Y-76975000D03*
X113365000Y-76975000D03*
X114635000Y-76975000D03*
X115905000Y-76975000D03*
X115905000Y-72025000D03*
X114635000Y-72025000D03*
X113365000Y-72025000D03*
X112095000Y-72025000D03*
%TD*%
%TO.C,U6*%
X90095000Y-76975000D03*
X91365000Y-76975000D03*
X92635000Y-76975000D03*
X93905000Y-76975000D03*
X93905000Y-72025000D03*
X92635000Y-72025000D03*
X91365000Y-72025000D03*
X90095000Y-72025000D03*
%TD*%
%TO.C,U7*%
X68095000Y-76975000D03*
X69365000Y-76975000D03*
X70635000Y-76975000D03*
X71905000Y-76975000D03*
X71905000Y-72025000D03*
X70635000Y-72025000D03*
X69365000Y-72025000D03*
X68095000Y-72025000D03*
%TD*%
D11*
%TO.C,C24*%
X127307339Y-66932339D03*
X126642659Y-66267659D03*
%TD*%
%TO.C,C25*%
X125832339Y-67432339D03*
X125167659Y-66767659D03*
%TD*%
D19*
%TO.C,C26*%
X127729999Y-71999999D03*
X128669999Y-71999999D03*
%TD*%
D11*
%TO.C,C27*%
X124982339Y-68282339D03*
X124317659Y-67617659D03*
%TD*%
D19*
%TO.C,C28*%
X105729999Y-71999999D03*
X106669999Y-71999999D03*
%TD*%
D11*
%TO.C,C29*%
X124132339Y-69132339D03*
X123467659Y-68467659D03*
%TD*%
D19*
%TO.C,C30*%
X83729999Y-71999999D03*
X84669999Y-71999999D03*
%TD*%
D14*
%TO.C,C31*%
X118467659Y-68732339D03*
X119132339Y-68067659D03*
%TD*%
D19*
%TO.C,C32*%
X63829999Y-63799999D03*
X64769999Y-63799999D03*
%TD*%
D44*
%TO.C,D9*%
X142612499Y-61299999D03*
X144237499Y-61299999D03*
%TD*%
%TO.C,D10*%
X144212499Y-62799999D03*
X142587499Y-62799999D03*
%TD*%
%TO.C,D11*%
X142587499Y-64299999D03*
X144212499Y-64299999D03*
%TD*%
%TO.C,D12*%
X104687499Y-70199999D03*
X106312499Y-70199999D03*
%TD*%
%TO.C,D13*%
X101187499Y-70099999D03*
X102812499Y-70099999D03*
%TD*%
%TO.C,D14*%
X97687499Y-69999999D03*
X99312499Y-69999999D03*
%TD*%
D45*
%TO.C,J8*%
X134250000Y-91700000D03*
D29*
X137749999Y-91699999D03*
%TD*%
D45*
%TO.C,J9*%
X112250000Y-91700000D03*
D29*
X115749999Y-91699999D03*
%TD*%
D45*
%TO.C,J10*%
X90250000Y-91700000D03*
D29*
X93749999Y-91699999D03*
%TD*%
D45*
%TO.C,J11*%
X68250000Y-91700000D03*
D29*
X71749999Y-91699999D03*
%TD*%
D19*
%TO.C,R24*%
X144029999Y-65599999D03*
X144969999Y-65599999D03*
%TD*%
D16*
%TO.C,R25*%
X141099999Y-62269999D03*
X141099999Y-61329999D03*
%TD*%
D19*
%TO.C,R26*%
X142129999Y-65599999D03*
X143069999Y-65599999D03*
%TD*%
%TO.C,R27*%
X143329999Y-73799999D03*
X144269999Y-73799999D03*
%TD*%
%TO.C,R28*%
X144269999Y-74899999D03*
X143329999Y-74899999D03*
%TD*%
%TO.C,R29*%
X127729999Y-72999999D03*
X128669999Y-72999999D03*
%TD*%
%TO.C,R30*%
X126129999Y-77899999D03*
X127069999Y-77899999D03*
%TD*%
%TO.C,R31*%
X128704999Y-70999999D03*
X129644999Y-70999999D03*
%TD*%
D16*
%TO.C,R32*%
X129699999Y-72129999D03*
X129699999Y-73069999D03*
%TD*%
D19*
%TO.C,R33*%
X128969999Y-77899999D03*
X128029999Y-77899999D03*
%TD*%
%TO.C,R34*%
X127129999Y-78999999D03*
X128069999Y-78999999D03*
%TD*%
D16*
%TO.C,R35*%
X125099999Y-77829999D03*
X125099999Y-78769999D03*
%TD*%
D19*
%TO.C,R36*%
X105729999Y-72999999D03*
X106669999Y-72999999D03*
%TD*%
%TO.C,R37*%
X104129999Y-77899999D03*
X105069999Y-77899999D03*
%TD*%
%TO.C,R38*%
X107529999Y-71099999D03*
X108469999Y-71099999D03*
%TD*%
D16*
%TO.C,R39*%
X107699999Y-72129999D03*
X107699999Y-73069999D03*
%TD*%
D19*
%TO.C,R40*%
X106969999Y-77899999D03*
X106029999Y-77899999D03*
%TD*%
%TO.C,R41*%
X105129999Y-78999999D03*
X106069999Y-78999999D03*
%TD*%
D16*
%TO.C,R42*%
X103099999Y-77829999D03*
X103099999Y-78769999D03*
%TD*%
D19*
%TO.C,R43*%
X83729999Y-72999999D03*
X84669999Y-72999999D03*
%TD*%
%TO.C,R44*%
X82129999Y-77899999D03*
X83069999Y-77899999D03*
%TD*%
%TO.C,R45*%
X84629999Y-70899999D03*
X85569999Y-70899999D03*
%TD*%
D16*
%TO.C,R46*%
X85699999Y-72129999D03*
X85699999Y-73069999D03*
%TD*%
D19*
%TO.C,R47*%
X84969999Y-77899999D03*
X84029999Y-77899999D03*
%TD*%
%TO.C,R48*%
X83129999Y-78999999D03*
X84069999Y-78999999D03*
%TD*%
D16*
%TO.C,R49*%
X81099999Y-77929999D03*
X81099999Y-78869999D03*
%TD*%
D19*
%TO.C,R50*%
X63829999Y-64799999D03*
X64769999Y-64799999D03*
%TD*%
%TO.C,R51*%
X62129999Y-69699999D03*
X63069999Y-69699999D03*
%TD*%
%TO.C,R52*%
X64829999Y-62749999D03*
X65769999Y-62749999D03*
%TD*%
D16*
%TO.C,R53*%
X65799999Y-63929999D03*
X65799999Y-64869999D03*
%TD*%
D19*
%TO.C,R54*%
X64969999Y-69699999D03*
X64029999Y-69699999D03*
%TD*%
%TO.C,R55*%
X63129999Y-70799999D03*
X64069999Y-70799999D03*
%TD*%
D16*
%TO.C,R56*%
X61099999Y-69659999D03*
X61099999Y-70599999D03*
%TD*%
D19*
%TO.C,R57*%
X106729999Y-68999999D03*
X107669999Y-68999999D03*
%TD*%
%TO.C,R58*%
X103229999Y-68899999D03*
X104169999Y-68899999D03*
%TD*%
%TO.C,R59*%
X99729999Y-68799999D03*
X100669999Y-68799999D03*
%TD*%
D46*
%TO.C,TH1*%
X144549999Y-76099999D03*
X143049999Y-76099999D03*
%TD*%
D35*
%TO.C,U9*%
X127049999Y-76599999D03*
X127999999Y-76599999D03*
X128949999Y-76599999D03*
X128949999Y-74399999D03*
X127049999Y-74399999D03*
%TD*%
%TO.C,U10*%
X105049999Y-76599999D03*
X105999999Y-76599999D03*
X106949999Y-76599999D03*
X106949999Y-74399999D03*
X105049999Y-74399999D03*
%TD*%
%TO.C,U11*%
X83049999Y-76599999D03*
X83999999Y-76599999D03*
X84949999Y-76599999D03*
X84949999Y-74399999D03*
X83049999Y-74399999D03*
%TD*%
%TO.C,U13*%
X80749999Y-61299999D03*
X79799999Y-61299999D03*
X78849999Y-61299999D03*
X78849999Y-63499999D03*
X79799999Y-63499999D03*
X80749999Y-63499999D03*
%TD*%
D19*
%TO.C,R23*%
X99729999Y-67799999D03*
X100669999Y-67799999D03*
%TD*%
D16*
%TO.C,C21*%
X95799999Y-64169999D03*
X95799999Y-63229999D03*
%TD*%
D47*
%TO.C,U8*%
X94749999Y-63249999D03*
X94249999Y-63249999D03*
X93749999Y-63249999D03*
X93249999Y-63249999D03*
X93249999Y-65149999D03*
X93749999Y-65149999D03*
X94249999Y-65149999D03*
X94749999Y-65149999D03*
D48*
X93999999Y-64199999D03*
%TD*%
D16*
%TO.C,C33*%
X125699999Y-75369999D03*
X125699999Y-74429999D03*
%TD*%
%TO.C,C34*%
X103699999Y-75369999D03*
X103699999Y-74429999D03*
%TD*%
%TO.C,C35*%
X81699999Y-75369999D03*
X81699999Y-74429999D03*
%TD*%
%TO.C,C36*%
X61699999Y-67269999D03*
X61699999Y-66329999D03*
%TD*%
D35*
%TO.C,U12*%
X63049999Y-68399999D03*
X63999999Y-68399999D03*
X64949999Y-68399999D03*
X64949999Y-66199999D03*
X63049999Y-66199999D03*
%TD*%
D49*
%TO.C,P1*%
X127700000Y-51510000D03*
D50*
X128716000Y-56590000D03*
X126684000Y-56590000D03*
%TD*%
M02*
