  0
SECTION
  2
HEADER
  9
$ACADVER
  1
AC1009
  9
$INSBASE
 10
0.0
 20
0.0
 30
0.0
  9
$EXTMIN
 10
0.0
 20
0.0
 30
0.0
  9
$EXTMAX
 10
0.0
 20
0.0
 30
0.0
  0
ENDSEC
  0
SECTION
  2
TABLES
  0
TABLE
  2
VPORT
 70
0
  0
ENDTAB
  0
TABLE
  2
LTYPE
 70
1
  0
LTYPE
  2
CONTINUOUS
 70
0
  3
Solid line
 72
65
 73
0
 40
0.0
  0
ENDTAB
  0
TABLE
  2
LAYER
 70
1
  0
LAYER
  2
0
 70
64
 62
7
  6
continuous
  0
ENDTAB
  0
TABLE
  2
STYLE
 70
1
  0
STYLE
  2
STANDARD
 70
0
 40
0
 41
1.0
 50
0.0
 71
0
 42
1
 3
ARIAL.TTF
 4

  0
ENDTAB
  0
TABLE
  2
VIEW
 70
0
  0
ENDTAB
  0
ENDSEC
  0
SECTION
  2
BLOCKS
  0
BLOCK
  8
0
  2
FUSION001
 70
0
 10
0.0
 20
0.0
 30
0.0
  3
FUSION001
  0
POLYLINE
  8
0
 62
0
 70
0
 66
1
 10
0.0
 20
0.0
 30
0.0
  0
VERTEX
  8
0
 10
101.07536288825078
 20
-52.507387999999985
 30
0.0
  0
VERTEX
  8
0
 10
104.61090304630018
 20
-51.042924834864905
 30
0.0
  0
VERTEX
  8
0
 10
106.07537173007897
 20
-47.507397999999995
 30
0.0
  0
SEQEND
  8
0
  0
POLYLINE
  8
0
 62
0
 70
0
 66
1
 10
0.0
 20
0.0
 30
0.0
  0
VERTEX
  8
0
 10
106.07537173007897
 20
-7.507503399999999
 30
0.0
  0
VERTEX
  8
0
 10
104.61090753645274
 20
-3.9719683552602856
 30
0.0
  0
VERTEX
  8
0
 10
101.07536288825078
 20
-2.5075006999999965
 30
0.0
  0
SEQEND
  8
0
  0
POLYLINE
  8
0
 62
0
 70
0
 66
1
 10
0.0
 20
0.0
 30
0.0
  0
VERTEX
  8
0
 10
96.07332203876526
 20
-12.50696
 30
0.0
  0
VERTEX
  8
0
 10
96.07332203876526
 20
-17.506949999999996
 30
0.0
  0
VERTEX
  8
0
 10
96.07332203876526
 20
-22.506939999999997
 30
0.0
  0
VERTEX
  8
0
 10
96.07332203876526
 20
-27.506929999999997
 30
0.0
  0
VERTEX
  8
0
 10
96.07332203876526
 20
-32.506919999999994
 30
0.0
  0
VERTEX
  8
0
 10
96.07332203876526
 20
-37.50690999999999
 30
0.0
  0
VERTEX
  8
0
 10
96.07332203876526
 20
-42.50689999999999
 30
0.0
  0
VERTEX
  8
0
 10
96.07332203876526
 20
-47.50688999999999
 30
0.0
  0
VERTEX
  8
0
 10
96.07332203876526
 20
-52.506879999999995
 30
0.0
  0
SEQEND
  8
0
  0
POLYLINE
  8
0
 62
0
 70
0
 66
1
 10
0.0
 20
0.0
 30
0.0
  0
VERTEX
  8
0
 10
96.07332203876526
 20
-12.50696
 30
0.0
  0
VERTEX
  8
0
 10
93.32376167743479
 20
-12.50696
 30
0.0
  0
VERTEX
  8
0
 10
90.57420131610432
 20
-12.50696
 30
0.0
  0
SEQEND
  8
0
  0
POLYLINE
  8
0
 62
0
 70
0
 66
1
 10
0.0
 20
0.0
 30
0.0
  0
VERTEX
  8
0
 10
101.07460088537927
 20
-2.5069799999999995
 30
0.0
  0
VERTEX
  8
0
 10
97.57446769562095
 20
-2.5069799999999995
 30
0.0
  0
VERTEX
  8
0
 10
94.07433450586264
 20
-2.5069799999999995
 30
0.0
  0
VERTEX
  8
0
 10
90.57420131610432
 20
-2.5069799999999995
 30
0.0
  0
SEQEND
  8
0
  0
POLYLINE
  8
0
 62
0
 70
0
 66
1
 10
0.0
 20
0.0
 30
0.0
  0
VERTEX
  8
0
 10
101.07460088537927
 20
-52.506879999999995
 30
0.0
  0
VERTEX
  8
0
 10
98.57396146207226
 20
-52.506879999999995
 30
0.0
  0
VERTEX
  8
0
 10
96.07332203876526
 20
-52.506879999999995
 30
0.0
  0
SEQEND
  8
0
  0
POLYLINE
  8
0
 62
0
 70
0
 66
1
 10
0.0
 20
0.0
 30
0.0
  0
VERTEX
  8
0
 10
90.57420131610432
 20
-12.50696
 30
0.0
  0
VERTEX
  8
0
 10
90.57420131610432
 20
-7.50697
 30
0.0
  0
VERTEX
  8
0
 10
90.57420131610432
 20
-2.5069799999999995
 30
0.0
  0
SEQEND
  8
0
  0
POLYLINE
  8
0
 62
0
 70
0
 66
1
 10
0.0
 20
0.0
 30
0.0
  0
VERTEX
  8
0
 10
106.07333972242162
 20
-7.505699999999999
 30
0.0
  0
VERTEX
  8
0
 10
106.07333972242162
 20
-12.505689999999998
 30
0.0
  0
VERTEX
  8
0
 10
106.07333972242162
 20
-17.505679999999998
 30
0.0
  0
VERTEX
  8
0
 10
106.07333972242162
 20
-22.505669999999995
 30
0.0
  0
VERTEX
  8
0
 10
106.07333972242162
 20
-27.505659999999992
 30
0.0
  0
VERTEX
  8
0
 10
106.07333972242162
 20
-32.50564999999999
 30
0.0
  0
VERTEX
  8
0
 10
106.07333972242162
 20
-37.50563999999999
 30
0.0
  0
VERTEX
  8
0
 10
106.07333972242162
 20
-42.50562999999999
 30
0.0
  0
VERTEX
  8
0
 10
106.07333972242162
 20
-47.50561999999999
 30
0.0
  0
SEQEND
  8
0
  0
ENDBLK
  0
BLOCK
  8
0
  2
FUSION
 70
0
 10
0.0
 20
0.0
 30
0.0
  3
FUSION
  0
POLYLINE
  8
0
 62
0
 70
0
 66
1
 10
0.0
 20
0.0
 30
0.0
  0
VERTEX
  8
0
 10
21.32338035415171
 20
-2.5069799999999995
 30
0.0
  0
VERTEX
  8
0
 10
21.32338035415171
 20
-7.506969999999999
 30
0.0
  0
VERTEX
  8
0
 10
21.32338035415171
 20
-12.50696
 30
0.0
  0
SEQEND
  8
0
  0
POLYLINE
  8
0
 62
0
 70
0
 66
1
 10
0.0
 20
0.0
 30
0.0
  0
VERTEX
  8
0
 10
21.32338035415171
 20
-12.50696
 30
0.0
  0
VERTEX
  8
0
 10
17.573479556512723
 20
-12.50696
 30
0.0
  0
VERTEX
  8
0
 10
13.823578758873733
 20
-12.50696
 30
0.0
  0
VERTEX
  8
0
 10
10.073677961234745
 20
-12.50696
 30
0.0
  0
SEQEND
  8
0
  0
POLYLINE
  8
0
 62
0
 70
0
 66
1
 10
0.0
 20
0.0
 30
0.0
  0
VERTEX
  8
0
 10
5.07493912419239
 20
-52.506879999999995
 30
0.0
  0
VERTEX
  8
0
 10
10.073677961234745
 20
-52.506879999999995
 30
0.0
  0
SEQEND
  8
0
  0
POLYLINE
  8
0
 62
0
 70
0
 66
1
 10
0.0
 20
0.0
 30
0.0
  0
VERTEX
  8
0
 10
10.073677961234745
 20
-52.506879999999995
 30
0.0
  0
VERTEX
  8
0
 10
10.073677961234745
 20
-47.50689
 30
0.0
  0
VERTEX
  8
0
 10
10.073677961234745
 20
-42.5069
 30
0.0
  0
VERTEX
  8
0
 10
10.073677961234745
 20
-37.50691
 30
0.0
  0
VERTEX
  8
0
 10
10.073677961234745
 20
-32.50692
 30
0.0
  0
VERTEX
  8
0
 10
10.073677961234745
 20
-27.506930000000004
 30
0.0
  0
VERTEX
  8
0
 10
10.073677961234745
 20
-22.506940000000004
 30
0.0
  0
VERTEX
  8
0
 10
10.073677961234745
 20
-17.506950000000003
 30
0.0
  0
VERTEX
  8
0
 10
10.073677961234745
 20
-12.50696
 30
0.0
  0
SEQEND
  8
0
  0
POLYLINE
  8
0
 62
0
 70
0
 66
1
 10
0.0
 20
0.0
 30
0.0
  0
VERTEX
  8
0
 10
5.075015324479541
 20
-2.5075006999999996
 30
0.0
  0
VERTEX
  8
0
 10
1.5394673923136888
 20
-3.971966559205566
 30
0.0
  0
VERTEX
  8
0
 10
0.07500140263220871
 20
-7.507503399999999
 30
0.0
  0
SEQEND
  8
0
  0
POLYLINE
  8
0
 62
0
 70
0
 66
1
 10
0.0
 20
0.0
 30
0.0
  0
VERTEX
  8
0
 10
0.0750014026322064
 20
-47.507397999999995
 30
0.0
  0
VERTEX
  8
0
 10
1.5394718824685254
 20
-51.04292663091736
 30
0.0
  0
VERTEX
  8
0
 10
5.075015324479541
 20
-52.507388
 30
0.0
  0
SEQEND
  8
0
  0
POLYLINE
  8
0
 62
0
 70
0
 66
1
 10
0.0
 20
0.0
 30
0.0
  0
VERTEX
  8
0
 10
5.07493912419239
 20
-2.5069799999999995
 30
0.0
  0
VERTEX
  8
0
 10
9.13704943168222
 20
-2.5069799999999995
 30
0.0
  0
VERTEX
  8
0
 10
13.19915973917205
 20
-2.5069799999999995
 30
0.0
  0
VERTEX
  8
0
 10
17.261270046661878
 20
-2.5069799999999995
 30
0.0
  0
VERTEX
  8
0
 10
21.32338035415171
 20
-2.5069799999999995
 30
0.0
  0
SEQEND
  8
0
  0
POLYLINE
  8
0
 62
0
 70
0
 66
1
 10
0.0
 20
0.0
 30
0.0
  0
VERTEX
  8
0
 10
0.07366027757836803
 20
-47.50561999999999
 30
0.0
  0
VERTEX
  8
0
 10
0.07366027757836803
 20
-42.50563
 30
0.0
  0
VERTEX
  8
0
 10
0.07366027757836803
 20
-37.50564
 30
0.0
  0
VERTEX
  8
0
 10
0.07366027757836803
 20
-32.505649999999996
 30
0.0
  0
VERTEX
  8
0
 10
0.07366027757836803
 20
-27.50566
 30
0.0
  0
VERTEX
  8
0
 10
0.07366027757836803
 20
-22.505670000000002
 30
0.0
  0
VERTEX
  8
0
 10
0.07366027757836803
 20
-17.50568
 30
0.0
  0
VERTEX
  8
0
 10
0.07366027757836803
 20
-12.505690000000001
 30
0.0
  0
VERTEX
  8
0
 10
0.07366027757836803
 20
-7.505699999999999
 30
0.0
  0
SEQEND
  8
0
  0
ENDBLK
  0
ENDSEC
  0
SECTION
  2
ENTITIES
  0
INSERT
  2
FUSION001
  8
0
 62
0
 10
0.0
 20
0.0
 30
0.0
  0
INSERT
  2
FUSION
  8
0
 62
0
 10
0.0
 20
0.0
 30
0.0
  0
ENDSEC
  0
EOF
