  0
SECTION
  2
HEADER
  9
$ACADVER
  1
AC1014
  9
$HANDSEED
  5
FFFF
  9
$MEASUREMENT
 70
     1
  0
ENDSEC
  0
SECTION
  2
TABLES
  0
TABLE
  2
VPORT
  5
8
330
0
100
AcDbSymbolTable
 70
     4
  0
VPORT
  5
2E
330
8
100
AcDbSymbolTableRecord
100
AcDbViewportTableRecord
  2
*ACTIVE
 70
     0
 10
0.0
 20
0.0
 11
1.0
 21
1.0
 12
210.0
 22
148.5
 13
0.0
 23
0.0
 14
10.0
 24
10.0
 15
10.0
 25
10.0
 16
0.0
 26
0.0
 36
1.0
 17
0.0
 27
0.0
 37
0.0
 40
341.0
 41
1.24
 42
50.0
 43
0.0
 44
0.0
 50
0.0
 51
0.0
 71
     0
 72
   100
 73
     1
 74
     3
 75
     0
 76
     0
 77
     0
 78
     0
  0
ENDTAB
  0
TABLE
  2
LTYPE
  5
5
330
0
100
AcDbSymbolTable
 70
     1
  0
LTYPE
  5
14
330
5
100
AcDbSymbolTableRecord
100
AcDbLinetypeTableRecord
  2
BYBLOCK
 70
     0
  3

 72
    65
 73
     0
 40
0.0
  0
LTYPE
  5
15
330
5
100
AcDbSymbolTableRecord
100
AcDbLinetypeTableRecord
  2
BYLAYER
 70
     0
  3

 72
    65
 73
     0
 40
0.0
  0
LTYPE
  5
16
330
5
100
AcDbSymbolTableRecord
100
AcDbLinetypeTableRecord
  2
CONTINUOUS
 70
     0
  3
Solid line
 72
    65
 73
     0
 40
0.0
  0
ENDTAB
  0
TABLE
  2
LAYER
  5
2
100
AcDbSymbolTable
 70
1
  0
LAYER
  5
50
100
AcDbSymbolTableRecord
100
AcDbLayerTableRecord
  2
0
 70
0
  6
CONTINUOUS
  0
ENDTAB
  0
TABLE
  2
STYLE
  5
3
330
0
100
AcDbSymbolTable
 70
     1
  0
STYLE
  5
11
330
3
100
AcDbSymbolTableRecord
100
AcDbTextStyleTableRecord
  2
STANDARD
 70
     0
 40
0.0
 41
1.0
 50
0.0
 71
     0
 42
2.5
  3
txt
  4

  0
ENDTAB
  0
TABLE
  2
VIEW
  5
6
330
0
100
AcDbSymbolTable
 70
     0
  0
ENDTAB
  0
TABLE
  2
UCS
  5
7
330
0
100
AcDbSymbolTable
 70
     0
  0
ENDTAB
  0
TABLE
  2
APPID
  5
9
330
0
100
AcDbSymbolTable
 70
     2
  0
APPID
  5
12
330
9
100
AcDbSymbolTableRecord
100
AcDbRegAppTableRecord
  2
ACAD
 70
     0
  0
ENDTAB
  0
TABLE
  2
DIMSTYLE
  5
A
330
0
100
AcDbSymbolTable
 70
     1
  0
DIMSTYLE
105
27
330
A
100
AcDbSymbolTableRecord
100
AcDbDimStyleTableRecord
  2
ISO-25
 70
     0
  3

  4

  5

  6

  7

 40
1.0
 41
2.5
 42
0.625
 43
3.75
 44
1.25
 45
0.0
 46
0.0
 47
0.0
 48
0.0
140
2.5
141
2.5
142
0.0
143
0.03937007874016
144
1.0
145
0.0
146
1.0
147
0.625
 71
     0
 72
     0
 73
     0
 74
     0
 75
     0
 76
     0
 77
     1
 78
     8
170
     0
171
     3
172
     1
173
     0
174
     0
175
     0
176
     0
177
     0
178
     0
270
     2
271
     2
272
     2
273
     2
274
     3
340
11
275
     0
280
     0
281
     0
282
     0
283
     0
284
     8
285
     0
286
     0
287
     3
288
     0
  0
ENDTAB
  0
TABLE
  2
BLOCK_RECORD
  5
1
330
0
100
AcDbSymbolTable
 70
     1
  0
BLOCK_RECORD
  5
1F
330
1
100
AcDbSymbolTableRecord
100
AcDbBlockTableRecord
  2
*MODEL_SPACE
  0
BLOCK_RECORD
  5
1B
330
1
100
AcDbSymbolTableRecord
100
AcDbBlockTableRecord
  2
*PAPER_SPACE
  0
ENDTAB
  0
ENDSEC
  0
SECTION
  2
BLOCKS
  0
BLOCK
  5
20
330
1F
100
AcDbEntity
  8
0
100
AcDbBlockBegin
  2
*MODEL_SPACE
 70
     0
 10
0.0
 20
0.0
 30
0.0
  3
*MODEL_SPACE
  1

  0
ENDBLK
  5
21
330
1F
100
AcDbEntity
  8
0
100
AcDbBlockEnd
  0
BLOCK
  5
1C
330
1B
100
AcDbEntity
 67
     1
  8
0
100
AcDbBlockBegin
  2
*PAPER_SPACE
  1

  0
ENDBLK
  5
1D
330
1B
100
AcDbEntity
 67
     1
  8
0
100
AcDbBlockEnd
  0
ENDSEC
  0
SECTION
  2
ENTITIES
  0
LWPOLYLINE
  5
100
100
AcDbEntity
  8
0
 62
7
100
AcDbPolyline
 90
3
 70
0
 10
21.323300
 20
-2.002231
 30
0.0
 10
21.323300
 20
-12.002211
 30
0.0
 10
10.073640
 20
-12.002211
 30
0.0
  0
LWPOLYLINE
  5
101
100
AcDbEntity
  8
0
 62
7
100
AcDbPolyline
 90
2
 70
0
 10
10.073640
 20
-52.002131
 30
0.0
 10
10.073640
 20
-12.002211
 30
0.0
  0
LWPOLYLINE
  5
102
100
AcDbEntity
  8
0
 62
7
100
AcDbPolyline
 90
2
 70
0
 10
5.074920
 20
-52.002131
 30
0.0
 10
10.073640
 20
-52.002131
 30
0.0
  0
LWPOLYLINE
  5
103
100
AcDbEntity
  8
0
 62
7
100
AcDbPolyline
 90
2
 70
0
 10
5.074920
 20
-2.002231
 30
0.0
 10
21.323300
 20
-2.002231
 30
0.0
  0
SPLINE
  5
104
100
AcDbEntity
  8
0
 62
7
100
AcDbSpline
 70
0
 71
3
 72
13
 73
9
 74
7
 40
0.000000
 40
0.000000
 40
0.000000
 40
0.000000
 40
1.308873
 40
2.606914
 40
3.915786
 40
5.224659
 40
6.522700
 40
7.831573
 40
7.831573
 40
7.831573
 40
7.831573
 10
0.075001
 20
-47.002649
 30
0.0
 10
0.108332
 20
-47.440215
 30
0.0
 10
0.174719
 20
-48.311725
 30
0.0
 10
0.699345
 20
-49.530929
 30
0.0
 10
1.497510
 20
-50.580133
 30
0.0
 10
2.546716
 20
-51.378298
 30
0.0
 10
3.765920
 20
-51.902923
 30
0.0
 10
4.637431
 20
-51.969308
 30
0.0
 10
5.074996
 20
-52.002639
 30
0.0
 11
0.075001
 21
-47.002649
 31
0.0
 11
0.246304
 21
-48.300264
 31
0.0
 11
0.743043
 21
-49.499497
 31
0.0
 11
1.539466
 21
-50.538178
 31
0.0
 11
2.578148
 21
-51.334600
 31
0.0
 11
3.777382
 21
-51.831338
 31
0.0
 11
5.074996
 21
-52.002639
 31
0.0
  0
LWPOLYLINE
  5
105
100
AcDbEntity
  8
0
 62
7
100
AcDbPolyline
 90
2
 70
0
 10
0.073660
 20
-47.000871
 30
0.0
 10
0.073660
 20
-7.000951
 30
0.0
  0
LWPOLYLINE
  5
106
100
AcDbEntity
  8
0
 62
7
100
AcDbPolyline
 90
2
 70
0
 10
101.074220
 20
-2.002231
 30
0.0
 10
90.573860
 20
-2.002231
 30
0.0
  0
LWPOLYLINE
  5
107
100
AcDbEntity
  8
0
 62
7
100
AcDbPolyline
 90
2
 70
0
 10
90.573860
 20
-12.002211
 30
0.0
 10
90.573860
 20
-2.002231
 30
0.0
  0
LWPOLYLINE
  5
108
100
AcDbEntity
  8
0
 62
7
100
AcDbPolyline
 90
2
 70
0
 10
96.072960
 20
-12.002211
 30
0.0
 10
90.573860
 20
-12.002211
 30
0.0
  0
LWPOLYLINE
  5
109
100
AcDbEntity
  8
0
 62
7
100
AcDbPolyline
 90
2
 70
0
 10
96.072960
 20
-12.002211
 30
0.0
 10
96.072960
 20
-52.002131
 30
0.0
  0
LWPOLYLINE
  5
10a
100
AcDbEntity
  8
0
 62
7
100
AcDbPolyline
 90
2
 70
0
 10
101.074220
 20
-52.002131
 30
0.0
 10
96.072960
 20
-52.002131
 30
0.0
  0
SPLINE
  5
10b
100
AcDbEntity
  8
0
 62
7
100
AcDbSpline
 70
0
 71
3
 72
13
 73
9
 74
7
 40
0.000000
 40
0.000000
 40
0.000000
 40
0.000000
 40
1.308875
 40
2.606918
 40
3.915793
 40
5.224668
 40
6.522711
 40
7.831586
 40
7.831586
 40
7.831586
 40
7.831586
 10
5.074996
 20
-2.002752
 30
0.0
 10
4.637430
 20
-2.036083
 30
0.0
 10
3.765918
 20
-2.102469
 30
0.0
 10
2.546712
 20
-2.627095
 30
0.0
 10
1.497506
 20
-3.425262
 30
0.0
 10
0.699340
 20
-4.474469
 30
0.0
 10
0.174716
 20
-5.693676
 30
0.0
 10
0.108331
 20
-6.565188
 30
0.0
 10
0.075001
 20
-7.002755
 30
0.0
 11
5.074996
 21
-2.002752
 31
0.0
 11
3.777380
 21
-2.174054
 31
0.0
 11
2.578144
 21
-2.670793
 31
0.0
 11
1.539462
 21
-3.467218
 31
0.0
 11
0.743039
 21
-4.505901
 31
0.0
 11
0.246301
 21
-5.705138
 31
0.0
 11
0.075001
 21
-7.002755
 31
0.0
  0
SPLINE
  5
10c
100
AcDbEntity
  8
0
 62
7
100
AcDbSpline
 70
0
 71
3
 72
13
 73
9
 74
7
 40
0.000000
 40
0.000000
 40
0.000000
 40
0.000000
 40
1.308874
 40
2.606916
 40
3.915790
 40
5.224664
 40
6.522707
 40
7.831581
 40
7.831581
 40
7.831581
 40
7.831581
 10
106.074972
 20
-7.002755
 30
0.0
 10
106.041642
 20
-6.565188
 30
0.0
 10
105.975257
 20
-5.693677
 30
0.0
 10
105.450634
 20
-4.474471
 30
0.0
 10
104.652469
 20
-3.425264
 30
0.0
 10
103.603264
 20
-2.627096
 30
0.0
 10
102.384059
 20
-2.102470
 30
0.0
 10
101.512548
 20
-2.036083
 30
0.0
 10
101.074982
 20
-2.002752
 30
0.0
 11
106.074972
 21
-7.002755
 31
0.0
 11
105.903672
 21
-5.705139
 31
0.0
 11
105.406935
 21
-4.505903
 31
0.0
 11
104.610513
 21
-3.467220
 31
0.0
 11
103.571832
 21
-2.670795
 31
0.0
 11
102.372598
 21
-2.174055
 31
0.0
 11
101.074982
 21
-2.002752
 31
0.0
  0
SPLINE
  5
10d
100
AcDbEntity
  8
0
 62
7
100
AcDbSpline
 70
0
 71
3
 72
13
 73
9
 74
7
 40
0.000000
 40
0.000000
 40
0.000000
 40
0.000000
 40
1.308872
 40
2.606912
 40
3.915784
 40
5.224656
 40
6.522696
 40
7.831568
 40
7.831568
 40
7.831568
 40
7.831568
 10
101.074982
 20
-52.002639
 30
0.0
 10
101.512547
 20
-51.969308
 30
0.0
 10
102.384057
 20
-51.902922
 30
0.0
 10
103.603260
 20
-51.378297
 30
0.0
 10
104.652464
 20
-50.580132
 30
0.0
 10
105.450629
 20
-49.530927
 30
0.0
 10
105.975254
 20
-48.311724
 30
0.0
 10
106.041641
 20
-47.440215
 30
0.0
 10
106.074972
 20
-47.002649
 30
0.0
 11
101.074982
 21
-52.002639
 31
0.0
 11
102.372596
 21
-51.831337
 31
0.0
 11
103.571828
 21
-51.334598
 31
0.0
 11
104.610509
 21
-50.538176
 31
0.0
 11
105.406931
 21
-49.499496
 31
0.0
 11
105.903670
 21
-48.300263
 31
0.0
 11
106.074972
 21
-47.002649
 31
0.0
  0
LWPOLYLINE
  5
10e
100
AcDbEntity
  8
0
 62
7
100
AcDbPolyline
 90
2
 70
0
 10
106.072940
 20
-7.000951
 30
0.0
 10
106.072940
 20
-47.000871
 30
0.0
  0
ENDSEC
  0
SECTION
  2
OBJECTS
  0
DICTIONARY
  5
C
330
0
100
AcDbDictionary
  3
ACAD_GROUP
350
D
  3
ACAD_MLINESTYLE
350
17
  0
DICTIONARY
  5
D
330
C
100
AcDbDictionary
  0
DICTIONARY
  5
1A
330
C
100
AcDbDictionary
  0
DICTIONARY
  5
17
330
C
100
AcDbDictionary
  3
STANDARD
350
18
  0
DICTIONARY
  5
19
330
C
100
AcDbDictionary
  0
ENDSEC
  0
EOF
